<?xml version="1.0" encoding="UTF-8" standalone="no"?>
<svg width="70.5556mm" height="48.3306mm"
 viewBox="0 0 200 137"
 xmlns="http://www.w3.org/2000/svg" xmlns:xlink="http://www.w3.org/1999/xlink"  version="1.2" baseProfile="tiny">
<defs>
</defs>
<g fill="none" stroke="black" stroke-width="1" fill-rule="evenodd" stroke-linecap="square" stroke-linejoin="bevel" >

<g fill="#ffffff" fill-opacity="0" stroke="none" transform="matrix(1,0,0,1,0,0)"
font-family="Helvetica" font-size="12" font-weight="400" font-style="normal" 
>
<path vector-effect="non-scaling-stroke" fill-rule="evenodd" d="M0,0 L200,0 L200,137 L0,137 L0,0z "/>
</g>

<g fill="none" stroke="#000000" stroke-opacity="1" stroke-width="1" stroke-linecap="square" stroke-linejoin="bevel" transform="matrix(1,0,0,1,0,0)"
font-family="Helvetica" font-size="12" font-weight="400" font-style="normal" 
>
</g>

<g fill="none" stroke="#000000" stroke-opacity="1" stroke-width="1" stroke-linecap="square" stroke-linejoin="bevel" transform="matrix(1,0,0,1,0,0)"
font-family="Helvetica" font-size="12" font-weight="400" font-style="normal" 
clip-path="url(#clip1468)" >
<defs><clipPath id="clip1468"><path vector-effect="non-scaling-stroke" fill-rule="evenodd" d="M0,0 L200,0 L200,137.5 L0,137.5 L0,0z "/>
</clipPath></defs></g>

<g fill="none" stroke="#000000" stroke-opacity="1" stroke-width="1" stroke-linecap="square" stroke-linejoin="bevel" transform="matrix(3.125,0,0,3.125,178.125,68.75)"
font-family="Helvetica" font-size="12" font-weight="400" font-style="normal" 
clip-path="url(#clip1469)" >
<defs><clipPath id="clip1469"><path vector-effect="non-scaling-stroke" fill-rule="evenodd" d="M-57,-22 L7,-22 L7,22 L-57,22 L-57,-22z "/>
</clipPath></defs></g>

<g fill="#000000" fill-opacity="0" stroke="#000000" stroke-opacity="1" stroke-width="2" stroke-linecap="round" stroke-linejoin="miter" stroke-miterlimit="2" transform="matrix(3.125,0,0,3.125,178.125,68.75)"
font-family="Helvetica" font-size="12" font-weight="400" font-style="normal" 
clip-path="url(#clip1469)" >
<path vector-effect="none" fill-rule="evenodd" d="M0,-5 L5,0 L0,5"/>
</g>

<g fill="none" stroke="#000000" stroke-opacity="1" stroke-width="1" stroke-linecap="square" stroke-linejoin="bevel" transform="matrix(3.125,0,0,3.125,178.125,68.75)"
font-family="Helvetica" font-size="12" font-weight="400" font-style="normal" 
clip-path="url(#clip1469)" >
</g>

<g fill="none" stroke="#000000" stroke-opacity="1" stroke-width="1" stroke-linecap="square" stroke-linejoin="bevel" transform="matrix(3.125,0,0,3.125,6.25,6.25)"
font-family="Helvetica" font-size="12" font-weight="400" font-style="normal" 
clip-path="url(#clip1470)" >
<defs><clipPath id="clip1470"><path vector-effect="non-scaling-stroke" fill-rule="evenodd" d="M-2,-2 L62,-2 L62,42 L-2,42 L-2,-2z "/>
</clipPath></defs></g>

<g fill="#ffffff" fill-opacity="1" stroke="none" transform="matrix(3.125,0,0,3.125,6.25,6.25)"
font-family="Helvetica" font-size="12" font-weight="400" font-style="normal" 
clip-path="url(#clip1470)" >
<path vector-effect="none" fill-rule="evenodd" d="M0,0 L55,0 L55,40 L0,40 L0,0z "/>
</g>

<g fill="none" stroke="#000000" stroke-opacity="1" stroke-width="1" stroke-linecap="square" stroke-linejoin="bevel" transform="matrix(3.125,0,0,3.125,6.25,6.25)"
font-family="Helvetica" font-size="12" font-weight="400" font-style="normal" 
clip-path="url(#clip1470)" >
</g>

<g fill="none" stroke="#000000" stroke-opacity="1" stroke-width="1" stroke-linecap="square" stroke-linejoin="bevel" transform="matrix(3.125,0,0,3.125,6.25,6.25)"
font-family="Helvetica" font-size="12" font-weight="400" font-style="normal" 
clip-path="url(#clip1470)" >
</g>

<g fill="none" stroke="#000000" stroke-opacity="1" stroke-width="1" stroke-linecap="square" stroke-linejoin="bevel" transform="matrix(3.125,0,0,3.125,6.25,6.25)"
font-family="Helvetica" font-size="12" font-weight="400" font-style="normal" 
clip-path="url(#clip1471)" >
<defs><clipPath id="clip1471"><path vector-effect="non-scaling-stroke" fill-rule="evenodd" d="M0,0 L55,0 L55,40 L0,40 L0,0z "/>
</clipPath></defs></g>

<g fill="none" stroke="#000000" stroke-opacity="1" stroke-width="1" stroke-linecap="square" stroke-linejoin="bevel" transform="matrix(3.125,0,0,3.125,90.625,53.125)"
font-family="system" font-size="8.18182" font-weight="400" font-style="normal" 
clip-path="url(#clip1472)" >
<defs><clipPath id="clip1472"><path vector-effect="none" fill-rule="evenodd" d="M-27,-15 L28,-15 L28,25 L-27,25 L-27,-15z "/>
</clipPath></defs></g>

<g fill="none" stroke="#000000" stroke-opacity="1" stroke-width="1" stroke-linecap="square" stroke-linejoin="bevel" transform="matrix(3.81944,0,0,3.81944,90.625,53.125)"
font-family="system" font-size="8.18182" font-weight="400" font-style="normal" 
clip-path="url(#clip1473)" >
<defs><clipPath id="clip1473"><path vector-effect="none" fill-rule="evenodd" d="M-22,-12 L23,-12 L23,21 L-22,21 L-22,-12z "/>
</clipPath></defs><text textLength="26" fill="#000000" fill-opacity="1" stroke="none" xml:space="preserve" x="-13.0781" y="2.46875" font-family="system" font-size="8.18182" font-weight="400" font-style="normal" 
 >Digital</text>
</g>

<g fill="none" stroke="#000000" stroke-opacity="1" stroke-width="1" stroke-linecap="square" stroke-linejoin="bevel" transform="matrix(3.125,0,0,3.125,90.625,53.125)"
font-family="system" font-size="8.18182" font-weight="400" font-style="normal" 
clip-path="url(#clip1474)" >
<defs><clipPath id="clip1474"><path vector-effect="none" fill-rule="evenodd" d="M-27,-15 L28,-15 L28,25 L-27,25 L-27,-15z "/>
</clipPath></defs></g>

<g fill="none" stroke="#000000" stroke-opacity="1" stroke-width="1" stroke-linecap="square" stroke-linejoin="bevel" transform="matrix(3.125,0,0,3.125,90.625,84.375)"
font-family="system" font-size="8.18182" font-weight="400" font-style="normal" 
clip-path="url(#clip1475)" >
<defs><clipPath id="clip1475"><path vector-effect="none" fill-rule="evenodd" d="M-27,-25 L28,-25 L28,15 L-27,15 L-27,-25z "/>
</clipPath></defs></g>

<g fill="none" stroke="#000000" stroke-opacity="1" stroke-width="1" stroke-linecap="square" stroke-linejoin="bevel" transform="matrix(3.81944,0,0,3.81944,90.625,84.375)"
font-family="system" font-size="8.18182" font-weight="400" font-style="normal" 
clip-path="url(#clip1476)" >
<defs><clipPath id="clip1476"><path vector-effect="none" fill-rule="evenodd" d="M-22,-20 L23,-20 L23,13 L-22,13 L-22,-20z "/>
</clipPath></defs><text textLength="21" fill="#000000" fill-opacity="1" stroke="none" xml:space="preserve" x="-10.625" y="2.46875" font-family="system" font-size="8.18182" font-weight="400" font-style="normal" 
 >Input</text>
</g>

<g fill="none" stroke="#000000" stroke-opacity="1" stroke-width="1" stroke-linecap="square" stroke-linejoin="bevel" transform="matrix(3.125,0,0,3.125,90.625,84.375)"
font-family="system" font-size="8.18182" font-weight="400" font-style="normal" 
clip-path="url(#clip1477)" >
<defs><clipPath id="clip1477"><path vector-effect="none" fill-rule="evenodd" d="M-27,-25 L28,-25 L28,15 L-27,15 L-27,-25z "/>
</clipPath></defs></g>

<g fill="none" stroke="#000000" stroke-opacity="1" stroke-width="1" stroke-linecap="square" stroke-linejoin="bevel" transform="matrix(2.55682,0,0,2.55682,90.625,84.375)"
font-family="system" font-size="8.18182" font-weight="400" font-style="normal" 
clip-path="url(#clip1478)" >
<defs><clipPath id="clip1478"><path vector-effect="none" fill-rule="evenodd" d="M-2,-2 L62,-2 L62,42 L-2,42 L-2,-2z "/>
</clipPath></defs></g>

<g fill="none" stroke="#000000" stroke-opacity="1" stroke-width="1" stroke-linecap="square" stroke-linejoin="bevel" transform="matrix(1,0,0,1,0,0)"
font-family="system" font-size="8.18182" font-weight="400" font-style="normal" 
clip-path="url(#clip1478)" >
</g>

<g fill="none" stroke="#000000" stroke-opacity="1" stroke-width="1" stroke-linecap="square" stroke-linejoin="bevel" transform="matrix(3.125,0,0,3.125,6.25,6.25)"
font-family="Helvetica" font-size="12" font-weight="400" font-style="normal" 
clip-path="url(#clip1478)" >
</g>

<g fill="none" stroke="#000000" stroke-opacity="1" stroke-width="1" stroke-linecap="square" stroke-linejoin="bevel" transform="matrix(3.125,0,0,3.125,6.25,6.25)"
font-family="Helvetica" font-size="12" font-weight="400" font-style="normal" 
clip-path="url(#clip1478)" >
</g>

<g fill="none" stroke="#000000" stroke-opacity="1" stroke-width="0.633957" stroke-linecap="butt" stroke-linejoin="miter" stroke-miterlimit="2" transform="matrix(3.125,0,0,3.125,6.25,6.25)"
font-family="Helvetica" font-size="12" font-weight="400" font-style="normal" 
clip-path="url(#clip1478)" >
<path vector-effect="none" fill-rule="evenodd" d="M0,0 L55,0 L55,40 L0,40 L0,0z "/>
</g>

<g fill="none" stroke="#000000" stroke-opacity="1" stroke-width="1" stroke-linecap="square" stroke-linejoin="bevel" transform="matrix(3.125,0,0,3.125,6.25,6.25)"
font-family="Helvetica" font-size="12" font-weight="400" font-style="normal" 
clip-path="url(#clip1478)" >
</g>

<g fill="none" stroke="#000000" stroke-opacity="1" stroke-width="1" stroke-linecap="square" stroke-linejoin="bevel" transform="matrix(3.125,0,0,3.125,92.1875,137.5)"
font-family="Helvetica" font-size="12" font-weight="400" font-style="normal" 
clip-path="url(#clip1479)" >
<defs><clipPath id="clip1479"><path vector-effect="non-scaling-stroke" fill-rule="evenodd" d="M-29.5,-44 L34.5,-44 L34.5,0 L-29.5,0 L-29.5,-44z "/>
</clipPath></defs></g>

<g fill="none" stroke="#000000" stroke-opacity="1" stroke-width="1" stroke-linecap="square" stroke-linejoin="bevel" transform="matrix(3.125,0,0,3.125,92.1875,137.5)"
font-family="Helvetica" font-size="12" font-weight="400" font-style="normal" 
clip-path="url(#clip1479)" >
</g>

<g fill="none" stroke="#000000" stroke-opacity="1" stroke-width="1" stroke-linecap="square" stroke-linejoin="bevel" transform="matrix(1,0,0,1,0,0)"
font-family="Helvetica" font-size="12" font-weight="400" font-style="normal" 
>
</g>

<g fill="none" stroke="#000000" stroke-opacity="1" stroke-width="1" stroke-linecap="square" stroke-linejoin="bevel" transform="matrix(1,0,0,1,0,0)"
font-family="Helvetica" font-size="12" font-weight="400" font-style="normal" 
>
</g>

<g fill="none" stroke="#000000" stroke-opacity="1" stroke-width="1" stroke-linecap="square" stroke-linejoin="bevel" transform="matrix(1,0,0,1,0,0)"
font-family="Helvetica" font-size="12" font-weight="400" font-style="normal" 
clip-path="url(#clip1480)" >
<defs><clipPath id="clip1480"><path vector-effect="non-scaling-stroke" fill-rule="evenodd" d="M0,0 L200,0 L200,137 L0,137 L0,0z "/>
</clipPath></defs></g>

<g fill="none" stroke="#000000" stroke-opacity="1" stroke-width="1" stroke-linecap="square" stroke-linejoin="bevel" transform="matrix(1,0,0,1,0,0)"
font-family="Helvetica" font-size="12" font-weight="400" font-style="normal" 
>
</g>

<g fill="none" stroke="#000000" stroke-opacity="1" stroke-width="1" stroke-linecap="square" stroke-linejoin="bevel" transform="matrix(1,0,0,1,0,0)"
font-family="Helvetica" font-size="12" font-weight="400" font-style="normal" 
>
</g>

<g fill="none" stroke="#000000" stroke-opacity="1" stroke-width="1" stroke-linecap="square" stroke-linejoin="bevel" transform="matrix(1,0,0,1,0,0)"
font-family="Helvetica" font-size="12" font-weight="400" font-style="normal" 
clip-path="url(#clip1481)" >
<defs><clipPath id="clip1481"><path vector-effect="non-scaling-stroke" fill-rule="evenodd" d="M0,0 L1,0 L1,1 L0,1 L0,0z "/>
</clipPath></defs></g>

<g fill="none" stroke="#000000" stroke-opacity="1" stroke-width="1" stroke-linecap="square" stroke-linejoin="bevel" transform="matrix(1,0,0,1,0,0)"
font-family="Helvetica" font-size="12" font-weight="400" font-style="normal" 
>
</g>

<g fill="none" stroke="#000000" stroke-opacity="1" stroke-width="1" stroke-linecap="square" stroke-linejoin="bevel" transform="matrix(1,0,0,1,0,0)"
font-family="Helvetica" font-size="12" font-weight="400" font-style="normal" 
>
</g>
</g>
</svg>
