<?xml version="1.0" encoding="UTF-8" standalone="no"?>
<svg width="70.5556mm" height="31.3972mm"
 viewBox="0 0 200 89"
 xmlns="http://www.w3.org/2000/svg" xmlns:xlink="http://www.w3.org/1999/xlink"  version="1.2" baseProfile="tiny">
<defs>
</defs>
<g fill="none" stroke="black" stroke-width="1" fill-rule="evenodd" stroke-linecap="square" stroke-linejoin="bevel" >

<g fill="#ffffff" fill-opacity="0" stroke="none" transform="matrix(1,0,0,1,0,0)"
font-family="Helvetica" font-size="12" font-weight="400" font-style="normal" 
>
<path vector-effect="non-scaling-stroke" fill-rule="evenodd" d="M0,0 L200,0 L200,89 L0,89 L0,0z "/>
</g>

<g fill="none" stroke="#000000" stroke-opacity="1" stroke-width="1" stroke-linecap="square" stroke-linejoin="bevel" transform="matrix(1,0,0,1,0,0)"
font-family="Helvetica" font-size="12" font-weight="400" font-style="normal" 
>
</g>

<g fill="none" stroke="#000000" stroke-opacity="1" stroke-width="1" stroke-linecap="square" stroke-linejoin="bevel" transform="matrix(1,0,0,1,0,0)"
font-family="Helvetica" font-size="12" font-weight="400" font-style="normal" 
clip-path="url(#clip1510)" >
<defs><clipPath id="clip1510"><path vector-effect="non-scaling-stroke" fill-rule="evenodd" d="M0,0 L200,0 L200,89.2562 L0,89.2562 L0,0z "/>
</clipPath></defs></g>

<g fill="none" stroke="#000000" stroke-opacity="1" stroke-width="1" stroke-linecap="square" stroke-linejoin="bevel" transform="matrix(1.65289,0,0,1.65289,3.30579,3.30579)"
font-family="Helvetica" font-size="12" font-weight="400" font-style="normal" 
clip-path="url(#clip1511)" >
<defs><clipPath id="clip1511"><path vector-effect="non-scaling-stroke" fill-rule="evenodd" d="M-2,-2 L119,-2 L119,52 L-2,52 L-2,-2z "/>
</clipPath></defs></g>

<g fill="#e8d152" fill-opacity="1" stroke="none" transform="matrix(1.65289,0,0,1.65289,3.30579,3.30579)"
font-family="Helvetica" font-size="12" font-weight="400" font-style="normal" 
clip-path="url(#clip1511)" >
<path vector-effect="none" fill-rule="evenodd" d="M0,0 L117,0 L117,50 L0,50 L0,0z "/>
</g>

<g fill="none" stroke="#000000" stroke-opacity="1" stroke-width="1" stroke-linecap="square" stroke-linejoin="bevel" transform="matrix(1.65289,0,0,1.65289,3.30579,3.30579)"
font-family="Helvetica" font-size="12" font-weight="400" font-style="normal" 
clip-path="url(#clip1511)" >
</g>

<g fill="none" stroke="#000000" stroke-opacity="1" stroke-width="1" stroke-linecap="square" stroke-linejoin="bevel" transform="matrix(1.65289,0,0,1.65289,3.30579,3.30579)"
font-family="Helvetica" font-size="12" font-weight="400" font-style="normal" 
clip-path="url(#clip1511)" >
</g>

<g fill="none" stroke="#000000" stroke-opacity="1" stroke-width="1" stroke-linecap="square" stroke-linejoin="bevel" transform="matrix(1.65289,0,0,1.65289,3.30579,3.30579)"
font-family="Helvetica" font-size="12" font-weight="400" font-style="normal" 
clip-path="url(#clip1512)" >
<defs><clipPath id="clip1512"><path vector-effect="non-scaling-stroke" fill-rule="evenodd" d="M0,0 L117,0 L117,50 L0,50 L0,0z "/>
</clipPath></defs></g>

<g fill="none" stroke="#000000" stroke-opacity="1" stroke-width="1" stroke-linecap="square" stroke-linejoin="bevel" transform="matrix(1.65289,0,0,1.65289,99.1736,28.0992)"
font-family="system" font-size="8.18182" font-weight="400" font-style="normal" 
clip-path="url(#clip1513)" >
<defs><clipPath id="clip1513"><path vector-effect="none" fill-rule="evenodd" d="M-58,-15 L59,-15 L59,35 L-58,35 L-58,-15z "/>
</clipPath></defs></g>

<g fill="none" stroke="#000000" stroke-opacity="1" stroke-width="1" stroke-linecap="square" stroke-linejoin="bevel" transform="matrix(2.0202,0,0,2.0202,99.1736,28.0992)"
font-family="system" font-size="8.18182" font-weight="400" font-style="normal" 
clip-path="url(#clip1514)" >
<defs><clipPath id="clip1514"><path vector-effect="none" fill-rule="evenodd" d="M-47,-12 L49,-12 L49,29 L-47,29 L-47,-12z "/>
</clipPath></defs><text textLength="83" fill="#000000" fill-opacity="1" stroke="none" xml:space="preserve" x="-41.7188" y="2.46875" font-family="system" font-size="8.18182" font-weight="400" font-style="normal" 
 >Double-click to open</text>
</g>

<g fill="none" stroke="#000000" stroke-opacity="1" stroke-width="1" stroke-linecap="square" stroke-linejoin="bevel" transform="matrix(1.65289,0,0,1.65289,99.1736,28.0992)"
font-family="system" font-size="8.18182" font-weight="400" font-style="normal" 
clip-path="url(#clip1515)" >
<defs><clipPath id="clip1515"><path vector-effect="none" fill-rule="evenodd" d="M-58,-15 L59,-15 L59,35 L-58,35 L-58,-15z "/>
</clipPath></defs></g>

<g fill="none" stroke="#000000" stroke-opacity="1" stroke-width="1" stroke-linecap="square" stroke-linejoin="bevel" transform="matrix(1.65289,0,0,1.65289,99.1736,44.6281)"
font-family="system" font-size="8.18182" font-weight="400" font-style="normal" 
clip-path="url(#clip1516)" >
<defs><clipPath id="clip1516"><path vector-effect="none" fill-rule="evenodd" d="M-58,-25 L59,-25 L59,25 L-58,25 L-58,-25z "/>
</clipPath></defs></g>

<g fill="none" stroke="#000000" stroke-opacity="1" stroke-width="1" stroke-linecap="square" stroke-linejoin="bevel" transform="matrix(2.0202,0,0,2.0202,99.1736,44.6281)"
font-family="system" font-size="8.18182" font-weight="400" font-style="normal" 
clip-path="url(#clip1517)" >
<defs><clipPath id="clip1517"><path vector-effect="none" fill-rule="evenodd" d="M-47,-20 L49,-20 L49,21 L-47,21 L-47,-20z "/>
</clipPath></defs><text textLength="78" fill="#000000" fill-opacity="1" stroke="none" xml:space="preserve" x="-40.0781" y="2.46875" font-family="system" font-size="8.18182" font-weight="400" font-style="normal" 
 >Real-Time Windows</text>
</g>

<g fill="none" stroke="#000000" stroke-opacity="1" stroke-width="1" stroke-linecap="square" stroke-linejoin="bevel" transform="matrix(1.65289,0,0,1.65289,99.1736,44.6281)"
font-family="system" font-size="8.18182" font-weight="400" font-style="normal" 
clip-path="url(#clip1518)" >
<defs><clipPath id="clip1518"><path vector-effect="none" fill-rule="evenodd" d="M-58,-25 L59,-25 L59,25 L-58,25 L-58,-25z "/>
</clipPath></defs></g>

<g fill="none" stroke="#000000" stroke-opacity="1" stroke-width="1" stroke-linecap="square" stroke-linejoin="bevel" transform="matrix(1.65289,0,0,1.65289,99.1736,61.157)"
font-family="system" font-size="8.18182" font-weight="400" font-style="normal" 
clip-path="url(#clip1519)" >
<defs><clipPath id="clip1519"><path vector-effect="none" fill-rule="evenodd" d="M-58,-35 L59,-35 L59,15 L-58,15 L-58,-35z "/>
</clipPath></defs></g>

<g fill="none" stroke="#000000" stroke-opacity="1" stroke-width="1" stroke-linecap="square" stroke-linejoin="bevel" transform="matrix(2.0202,0,0,2.0202,99.1736,61.157)"
font-family="system" font-size="8.18182" font-weight="400" font-style="normal" 
clip-path="url(#clip1520)" >
<defs><clipPath id="clip1520"><path vector-effect="none" fill-rule="evenodd" d="M-47,-29 L49,-29 L49,12 L-47,12 L-47,-29z "/>
</clipPath></defs><text textLength="69" fill="#000000" fill-opacity="1" stroke="none" xml:space="preserve" x="-35.1719" y="2.46875" font-family="system" font-size="8.18182" font-weight="400" font-style="normal" 
 >Target examples.</text>
</g>

<g fill="none" stroke="#000000" stroke-opacity="1" stroke-width="1" stroke-linecap="square" stroke-linejoin="bevel" transform="matrix(1.65289,0,0,1.65289,99.1736,61.157)"
font-family="system" font-size="8.18182" font-weight="400" font-style="normal" 
clip-path="url(#clip1521)" >
<defs><clipPath id="clip1521"><path vector-effect="none" fill-rule="evenodd" d="M-58,-35 L59,-35 L59,15 L-58,15 L-58,-35z "/>
</clipPath></defs></g>

<g fill="none" stroke="#000000" stroke-opacity="1" stroke-width="1" stroke-linecap="square" stroke-linejoin="bevel" transform="matrix(1.35237,0,0,1.35237,99.1736,61.157)"
font-family="system" font-size="8.18182" font-weight="400" font-style="normal" 
clip-path="url(#clip1522)" >
<defs><clipPath id="clip1522"><path vector-effect="none" fill-rule="evenodd" d="M-2,-2 L119,-2 L119,52 L-2,52 L-2,-2z "/>
</clipPath></defs></g>

<g fill="none" stroke="#000000" stroke-opacity="1" stroke-width="1" stroke-linecap="square" stroke-linejoin="bevel" transform="matrix(1,0,0,1,0,0)"
font-family="system" font-size="8.18182" font-weight="400" font-style="normal" 
clip-path="url(#clip1522)" >
</g>

<g fill="none" stroke="#000000" stroke-opacity="1" stroke-width="1" stroke-linecap="square" stroke-linejoin="bevel" transform="matrix(1.65289,0,0,1.65289,3.30579,3.30579)"
font-family="Helvetica" font-size="12" font-weight="400" font-style="normal" 
clip-path="url(#clip1522)" >
</g>

<g fill="none" stroke="#000000" stroke-opacity="1" stroke-width="1" stroke-linecap="square" stroke-linejoin="bevel" transform="matrix(1.65289,0,0,1.65289,3.30579,3.30579)"
font-family="Helvetica" font-size="12" font-weight="400" font-style="normal" 
clip-path="url(#clip1522)" >
</g>

<g fill="none" stroke="#000000" stroke-opacity="1" stroke-width="0.817904" stroke-linecap="butt" stroke-linejoin="miter" stroke-miterlimit="2" transform="matrix(1.65289,0,0,1.65289,3.30579,3.30579)"
font-family="Helvetica" font-size="12" font-weight="400" font-style="normal" 
clip-path="url(#clip1522)" >
<path vector-effect="none" fill-rule="evenodd" d="M0,0 L117,0 L117,50 L0,50 L0,0z "/>
</g>

<g fill="none" stroke="#000000" stroke-opacity="1" stroke-width="1" stroke-linecap="square" stroke-linejoin="bevel" transform="matrix(1.65289,0,0,1.65289,3.30579,3.30579)"
font-family="Helvetica" font-size="12" font-weight="400" font-style="normal" 
clip-path="url(#clip1522)" >
</g>

<g fill="none" stroke="#000000" stroke-opacity="1" stroke-width="1" stroke-linecap="square" stroke-linejoin="bevel" transform="matrix(1.65289,0,0,1.65289,100,89.2562)"
font-family="Helvetica" font-size="12" font-weight="400" font-style="normal" 
clip-path="url(#clip1523)" >
<defs><clipPath id="clip1523"><path vector-effect="non-scaling-stroke" fill-rule="evenodd" d="M-60.5,-54 L60.5,-54 L60.5,0 L-60.5,0 L-60.5,-54z "/>
</clipPath></defs></g>

<g fill="none" stroke="#000000" stroke-opacity="1" stroke-width="1" stroke-linecap="square" stroke-linejoin="bevel" transform="matrix(1.65289,0,0,1.65289,100,89.2562)"
font-family="Helvetica" font-size="12" font-weight="400" font-style="normal" 
clip-path="url(#clip1523)" >
</g>

<g fill="none" stroke="#000000" stroke-opacity="1" stroke-width="1" stroke-linecap="square" stroke-linejoin="bevel" transform="matrix(1,0,0,1,0,0)"
font-family="Helvetica" font-size="12" font-weight="400" font-style="normal" 
>
</g>

<g fill="none" stroke="#000000" stroke-opacity="1" stroke-width="1" stroke-linecap="square" stroke-linejoin="bevel" transform="matrix(1,0,0,1,0,0)"
font-family="Helvetica" font-size="12" font-weight="400" font-style="normal" 
>
</g>

<g fill="none" stroke="#000000" stroke-opacity="1" stroke-width="1" stroke-linecap="square" stroke-linejoin="bevel" transform="matrix(1,0,0,1,0,0)"
font-family="Helvetica" font-size="12" font-weight="400" font-style="normal" 
clip-path="url(#clip1524)" >
<defs><clipPath id="clip1524"><path vector-effect="non-scaling-stroke" fill-rule="evenodd" d="M0,0 L200,0 L200,89 L0,89 L0,0z "/>
</clipPath></defs></g>

<g fill="none" stroke="#000000" stroke-opacity="1" stroke-width="1" stroke-linecap="square" stroke-linejoin="bevel" transform="matrix(1,0,0,1,0,0)"
font-family="Helvetica" font-size="12" font-weight="400" font-style="normal" 
>
</g>

<g fill="none" stroke="#000000" stroke-opacity="1" stroke-width="1" stroke-linecap="square" stroke-linejoin="bevel" transform="matrix(1,0,0,1,0,0)"
font-family="Helvetica" font-size="12" font-weight="400" font-style="normal" 
>
</g>

<g fill="none" stroke="#000000" stroke-opacity="1" stroke-width="1" stroke-linecap="square" stroke-linejoin="bevel" transform="matrix(1,0,0,1,0,0)"
font-family="Helvetica" font-size="12" font-weight="400" font-style="normal" 
clip-path="url(#clip1525)" >
<defs><clipPath id="clip1525"><path vector-effect="non-scaling-stroke" fill-rule="evenodd" d="M0,0 L1,0 L1,1 L0,1 L0,0z "/>
</clipPath></defs></g>

<g fill="none" stroke="#000000" stroke-opacity="1" stroke-width="1" stroke-linecap="square" stroke-linejoin="bevel" transform="matrix(1,0,0,1,0,0)"
font-family="Helvetica" font-size="12" font-weight="400" font-style="normal" 
>
</g>

<g fill="none" stroke="#000000" stroke-opacity="1" stroke-width="1" stroke-linecap="square" stroke-linejoin="bevel" transform="matrix(1,0,0,1,0,0)"
font-family="Helvetica" font-size="12" font-weight="400" font-style="normal" 
>
</g>
</g>
</svg>
