<?xml version="1.0" encoding="UTF-8" standalone="no"?>
<svg width="70.5556mm" height="48.3306mm"
 viewBox="0 0 200 137"
 xmlns="http://www.w3.org/2000/svg" xmlns:xlink="http://www.w3.org/1999/xlink"  version="1.2" baseProfile="tiny">
<defs>
</defs>
<g fill="none" stroke="black" stroke-width="1" fill-rule="evenodd" stroke-linecap="square" stroke-linejoin="bevel" >

<g fill="#ffffff" fill-opacity="0" stroke="none" transform="matrix(1,0,0,1,0,0)"
font-family="Helvetica" font-size="12" font-weight="400" font-style="normal" 
>
<path vector-effect="non-scaling-stroke" fill-rule="evenodd" d="M0,0 L200,0 L200,137 L0,137 L0,0z "/>
</g>

<g fill="none" stroke="#000000" stroke-opacity="1" stroke-width="1" stroke-linecap="square" stroke-linejoin="bevel" transform="matrix(1,0,0,1,0,0)"
font-family="Helvetica" font-size="12" font-weight="400" font-style="normal" 
>
</g>

<g fill="none" stroke="#000000" stroke-opacity="1" stroke-width="1" stroke-linecap="square" stroke-linejoin="bevel" transform="matrix(1,0,0,1,0,0)"
font-family="Helvetica" font-size="12" font-weight="400" font-style="normal" 
clip-path="url(#clip1526)" >
<defs><clipPath id="clip1526"><path vector-effect="non-scaling-stroke" fill-rule="evenodd" d="M0,0 L200,0 L200,137.5 L0,137.5 L0,0z "/>
</clipPath></defs></g>

<g fill="none" stroke="#000000" stroke-opacity="1" stroke-width="1" stroke-linecap="square" stroke-linejoin="bevel" transform="matrix(-3.125,0,0,-3.125,21.875,68.75)"
font-family="Helvetica" font-size="12" font-weight="400" font-style="normal" 
clip-path="url(#clip1527)" >
<defs><clipPath id="clip1527"><path vector-effect="non-scaling-stroke" fill-rule="evenodd" d="M7,22 L-57,22 L-57,-22 L7,-22 L7,22z "/>
</clipPath></defs></g>

<g fill="#000000" fill-opacity="0" stroke="#000000" stroke-opacity="1" stroke-width="2" stroke-linecap="round" stroke-linejoin="miter" stroke-miterlimit="2" transform="matrix(-3.125,0,0,-3.125,21.875,68.75)"
font-family="Helvetica" font-size="12" font-weight="400" font-style="normal" 
clip-path="url(#clip1527)" >
<path vector-effect="none" fill-rule="evenodd" d="M5,-5 L0,0 L5,5"/>
</g>

<g fill="none" stroke="#000000" stroke-opacity="1" stroke-width="1" stroke-linecap="square" stroke-linejoin="bevel" transform="matrix(-3.125,0,0,-3.125,21.875,68.75)"
font-family="Helvetica" font-size="12" font-weight="400" font-style="normal" 
clip-path="url(#clip1527)" >
</g>

<g fill="none" stroke="#000000" stroke-opacity="1" stroke-width="1" stroke-linecap="square" stroke-linejoin="bevel" transform="matrix(3.125,0,0,3.125,21.875,6.25)"
font-family="Helvetica" font-size="12" font-weight="400" font-style="normal" 
clip-path="url(#clip1528)" >
<defs><clipPath id="clip1528"><path vector-effect="non-scaling-stroke" fill-rule="evenodd" d="M-7,-2 L57,-2 L57,42 L-7,42 L-7,-2z "/>
</clipPath></defs></g>

<g fill="#ffffff" fill-opacity="1" stroke="none" transform="matrix(3.125,0,0,3.125,21.875,6.25)"
font-family="Helvetica" font-size="12" font-weight="400" font-style="normal" 
clip-path="url(#clip1528)" >
<path vector-effect="none" fill-rule="evenodd" d="M0,0 L55,0 L55,40 L0,40 L0,0z "/>
</g>

<g fill="none" stroke="#000000" stroke-opacity="1" stroke-width="1" stroke-linecap="square" stroke-linejoin="bevel" transform="matrix(3.125,0,0,3.125,21.875,6.25)"
font-family="Helvetica" font-size="12" font-weight="400" font-style="normal" 
clip-path="url(#clip1528)" >
</g>

<g fill="none" stroke="#000000" stroke-opacity="1" stroke-width="1" stroke-linecap="square" stroke-linejoin="bevel" transform="matrix(3.125,0,0,3.125,21.875,6.25)"
font-family="Helvetica" font-size="12" font-weight="400" font-style="normal" 
clip-path="url(#clip1528)" >
</g>

<g fill="none" stroke="#000000" stroke-opacity="1" stroke-width="1" stroke-linecap="square" stroke-linejoin="bevel" transform="matrix(3.125,0,0,3.125,21.875,6.25)"
font-family="Helvetica" font-size="12" font-weight="400" font-style="normal" 
clip-path="url(#clip1529)" >
<defs><clipPath id="clip1529"><path vector-effect="non-scaling-stroke" fill-rule="evenodd" d="M0,0 L55,0 L55,40 L0,40 L0,0z "/>
</clipPath></defs></g>

<g fill="none" stroke="#000000" stroke-opacity="1" stroke-width="1" stroke-linecap="square" stroke-linejoin="bevel" transform="matrix(3.125,0,0,3.125,106.25,53.125)"
font-family="system" font-size="8.18182" font-weight="400" font-style="normal" 
clip-path="url(#clip1530)" >
<defs><clipPath id="clip1530"><path vector-effect="none" fill-rule="evenodd" d="M-27,-15 L28,-15 L28,25 L-27,25 L-27,-15z "/>
</clipPath></defs></g>

<g fill="none" stroke="#000000" stroke-opacity="1" stroke-width="1" stroke-linecap="square" stroke-linejoin="bevel" transform="matrix(3.81944,0,0,3.81944,106.25,53.125)"
font-family="system" font-size="8.18182" font-weight="400" font-style="normal" 
clip-path="url(#clip1531)" >
<defs><clipPath id="clip1531"><path vector-effect="none" fill-rule="evenodd" d="M-22,-12 L23,-12 L23,21 L-22,21 L-22,-12z "/>
</clipPath></defs><text textLength="42" fill="#000000" fill-opacity="1" stroke="none" xml:space="preserve" x="-21.2656" y="2.46875" font-family="system" font-size="8.18182" font-weight="400" font-style="normal" 
 >Frequency</text>
</g>

<g fill="none" stroke="#000000" stroke-opacity="1" stroke-width="1" stroke-linecap="square" stroke-linejoin="bevel" transform="matrix(3.125,0,0,3.125,106.25,53.125)"
font-family="system" font-size="8.18182" font-weight="400" font-style="normal" 
clip-path="url(#clip1532)" >
<defs><clipPath id="clip1532"><path vector-effect="none" fill-rule="evenodd" d="M-27,-15 L28,-15 L28,25 L-27,25 L-27,-15z "/>
</clipPath></defs></g>

<g fill="none" stroke="#000000" stroke-opacity="1" stroke-width="1" stroke-linecap="square" stroke-linejoin="bevel" transform="matrix(3.125,0,0,3.125,106.25,84.375)"
font-family="system" font-size="8.18182" font-weight="400" font-style="normal" 
clip-path="url(#clip1533)" >
<defs><clipPath id="clip1533"><path vector-effect="none" fill-rule="evenodd" d="M-27,-25 L28,-25 L28,15 L-27,15 L-27,-25z "/>
</clipPath></defs></g>

<g fill="none" stroke="#000000" stroke-opacity="1" stroke-width="1" stroke-linecap="square" stroke-linejoin="bevel" transform="matrix(3.81944,0,0,3.81944,106.25,84.375)"
font-family="system" font-size="8.18182" font-weight="400" font-style="normal" 
clip-path="url(#clip1534)" >
<defs><clipPath id="clip1534"><path vector-effect="none" fill-rule="evenodd" d="M-22,-20 L23,-20 L23,13 L-22,13 L-22,-20z "/>
</clipPath></defs><text textLength="28" fill="#000000" fill-opacity="1" stroke="none" xml:space="preserve" x="-13.9062" y="2.46875" font-family="system" font-size="8.18182" font-weight="400" font-style="normal" 
 >Output</text>
</g>

<g fill="none" stroke="#000000" stroke-opacity="1" stroke-width="1" stroke-linecap="square" stroke-linejoin="bevel" transform="matrix(3.125,0,0,3.125,106.25,84.375)"
font-family="system" font-size="8.18182" font-weight="400" font-style="normal" 
clip-path="url(#clip1535)" >
<defs><clipPath id="clip1535"><path vector-effect="none" fill-rule="evenodd" d="M-27,-25 L28,-25 L28,15 L-27,15 L-27,-25z "/>
</clipPath></defs></g>

<g fill="none" stroke="#000000" stroke-opacity="1" stroke-width="1" stroke-linecap="square" stroke-linejoin="bevel" transform="matrix(2.55682,0,0,2.55682,106.25,84.375)"
font-family="system" font-size="8.18182" font-weight="400" font-style="normal" 
clip-path="url(#clip1536)" >
<defs><clipPath id="clip1536"><path vector-effect="none" fill-rule="evenodd" d="M-7,-2 L57,-2 L57,42 L-7,42 L-7,-2z "/>
</clipPath></defs></g>

<g fill="none" stroke="#000000" stroke-opacity="1" stroke-width="1" stroke-linecap="square" stroke-linejoin="bevel" transform="matrix(1,0,0,1,0,0)"
font-family="system" font-size="8.18182" font-weight="400" font-style="normal" 
clip-path="url(#clip1536)" >
</g>

<g fill="none" stroke="#000000" stroke-opacity="1" stroke-width="1" stroke-linecap="square" stroke-linejoin="bevel" transform="matrix(3.125,0,0,3.125,21.875,6.25)"
font-family="Helvetica" font-size="12" font-weight="400" font-style="normal" 
clip-path="url(#clip1536)" >
</g>

<g fill="none" stroke="#000000" stroke-opacity="1" stroke-width="1" stroke-linecap="square" stroke-linejoin="bevel" transform="matrix(3.125,0,0,3.125,21.875,6.25)"
font-family="Helvetica" font-size="12" font-weight="400" font-style="normal" 
clip-path="url(#clip1536)" >
</g>

<g fill="none" stroke="#000000" stroke-opacity="1" stroke-width="0.633957" stroke-linecap="butt" stroke-linejoin="miter" stroke-miterlimit="2" transform="matrix(3.125,0,0,3.125,21.875,6.25)"
font-family="Helvetica" font-size="12" font-weight="400" font-style="normal" 
clip-path="url(#clip1536)" >
<path vector-effect="none" fill-rule="evenodd" d="M0,0 L55,0 L55,40 L0,40 L0,0z "/>
</g>

<g fill="none" stroke="#000000" stroke-opacity="1" stroke-width="1" stroke-linecap="square" stroke-linejoin="bevel" transform="matrix(3.125,0,0,3.125,21.875,6.25)"
font-family="Helvetica" font-size="12" font-weight="400" font-style="normal" 
clip-path="url(#clip1536)" >
</g>

<g fill="none" stroke="#000000" stroke-opacity="1" stroke-width="1" stroke-linecap="square" stroke-linejoin="bevel" transform="matrix(3.125,0,0,3.125,107.812,137.5)"
font-family="Helvetica" font-size="12" font-weight="400" font-style="normal" 
clip-path="url(#clip1537)" >
<defs><clipPath id="clip1537"><path vector-effect="non-scaling-stroke" fill-rule="evenodd" d="M-34.5,-44 L29.5,-44 L29.5,0 L-34.5,0 L-34.5,-44z "/>
</clipPath></defs></g>

<g fill="none" stroke="#000000" stroke-opacity="1" stroke-width="1" stroke-linecap="square" stroke-linejoin="bevel" transform="matrix(3.125,0,0,3.125,107.812,137.5)"
font-family="Helvetica" font-size="12" font-weight="400" font-style="normal" 
clip-path="url(#clip1537)" >
</g>

<g fill="none" stroke="#000000" stroke-opacity="1" stroke-width="1" stroke-linecap="square" stroke-linejoin="bevel" transform="matrix(1,0,0,1,0,0)"
font-family="Helvetica" font-size="12" font-weight="400" font-style="normal" 
>
</g>

<g fill="none" stroke="#000000" stroke-opacity="1" stroke-width="1" stroke-linecap="square" stroke-linejoin="bevel" transform="matrix(1,0,0,1,0,0)"
font-family="Helvetica" font-size="12" font-weight="400" font-style="normal" 
>
</g>

<g fill="none" stroke="#000000" stroke-opacity="1" stroke-width="1" stroke-linecap="square" stroke-linejoin="bevel" transform="matrix(1,0,0,1,0,0)"
font-family="Helvetica" font-size="12" font-weight="400" font-style="normal" 
clip-path="url(#clip1538)" >
<defs><clipPath id="clip1538"><path vector-effect="non-scaling-stroke" fill-rule="evenodd" d="M0,0 L200,0 L200,137 L0,137 L0,0z "/>
</clipPath></defs></g>

<g fill="none" stroke="#000000" stroke-opacity="1" stroke-width="1" stroke-linecap="square" stroke-linejoin="bevel" transform="matrix(1,0,0,1,0,0)"
font-family="Helvetica" font-size="12" font-weight="400" font-style="normal" 
>
</g>

<g fill="none" stroke="#000000" stroke-opacity="1" stroke-width="1" stroke-linecap="square" stroke-linejoin="bevel" transform="matrix(1,0,0,1,0,0)"
font-family="Helvetica" font-size="12" font-weight="400" font-style="normal" 
>
</g>

<g fill="none" stroke="#000000" stroke-opacity="1" stroke-width="1" stroke-linecap="square" stroke-linejoin="bevel" transform="matrix(1,0,0,1,0,0)"
font-family="Helvetica" font-size="12" font-weight="400" font-style="normal" 
clip-path="url(#clip1539)" >
<defs><clipPath id="clip1539"><path vector-effect="non-scaling-stroke" fill-rule="evenodd" d="M0,0 L1,0 L1,1 L0,1 L0,0z "/>
</clipPath></defs></g>

<g fill="none" stroke="#000000" stroke-opacity="1" stroke-width="1" stroke-linecap="square" stroke-linejoin="bevel" transform="matrix(1,0,0,1,0,0)"
font-family="Helvetica" font-size="12" font-weight="400" font-style="normal" 
>
</g>

<g fill="none" stroke="#000000" stroke-opacity="1" stroke-width="1" stroke-linecap="square" stroke-linejoin="bevel" transform="matrix(1,0,0,1,0,0)"
font-family="Helvetica" font-size="12" font-weight="400" font-style="normal" 
>
</g>
</g>
</svg>
