<?xml version="1.0" encoding="UTF-8" standalone="no"?>
<svg width="67.7333mm" height="38.608mm"
 viewBox="0 0 200 114"
 xmlns="http://www.w3.org/2000/svg" xmlns:xlink="http://www.w3.org/1999/xlink"  version="1.2" baseProfile="tiny">
<defs>
</defs>
<g fill="none" stroke="black" stroke-width="1" fill-rule="evenodd" stroke-linecap="square" stroke-linejoin="bevel" >

<g fill="#ffffff" fill-opacity="0" stroke="none" transform="matrix(1,0,0,1,0,0)"
font-family="Helvetica" font-size="12.5" font-weight="400" font-style="normal" 
>
<path vector-effect="non-scaling-stroke" fill-rule="evenodd" d="M0,0 L200,0 L200,114 L0,114 L0,0z "/>
</g>

<g fill="none" stroke="#000000" stroke-opacity="1" stroke-width="1" stroke-linecap="square" stroke-linejoin="bevel" transform="matrix(1,0,0,1,0,0)"
font-family="Helvetica" font-size="12.5" font-weight="400" font-style="normal" 
>
</g>

<g fill="none" stroke="#000000" stroke-opacity="1" stroke-width="1" stroke-linecap="square" stroke-linejoin="bevel" transform="matrix(1,0,0,1,0,0)"
font-family="Helvetica" font-size="12.5" font-weight="400" font-style="normal" 
clip-path="url(#clip73)" >
<defs><clipPath id="clip73"><path vector-effect="non-scaling-stroke" fill-rule="evenodd" d="M0,0 L200,0 L200,114.894 L0,114.894 L0,0z "/>
</clipPath></defs></g>

<g fill="none" stroke="#000000" stroke-opacity="1" stroke-width="1" stroke-linecap="square" stroke-linejoin="bevel" transform="matrix(2.12766,0,0,2.12766,185.106,57.4468)"
font-family="Helvetica" font-size="12.5" font-weight="400" font-style="normal" 
clip-path="url(#clip74)" >
<defs><clipPath id="clip74"><path vector-effect="non-scaling-stroke" fill-rule="evenodd" d="M-87,-27 L7,-27 L7,27 L-87,27 L-87,-27z "/>
</clipPath></defs></g>

<g fill="#000000" fill-opacity="0" stroke="#000000" stroke-opacity="1" stroke-width="2" stroke-linecap="round" stroke-linejoin="miter" stroke-miterlimit="2" transform="matrix(2.12766,0,0,2.12766,185.106,57.4468)"
font-family="Helvetica" font-size="12.5" font-weight="400" font-style="normal" 
clip-path="url(#clip74)" >
<path vector-effect="none" fill-rule="evenodd" d="M0,-5 L5,0 L0,5"/>
</g>

<g fill="none" stroke="#000000" stroke-opacity="1" stroke-width="1" stroke-linecap="square" stroke-linejoin="bevel" transform="matrix(2.12766,0,0,2.12766,185.106,57.4468)"
font-family="Helvetica" font-size="12.5" font-weight="400" font-style="normal" 
clip-path="url(#clip74)" >
</g>

<g fill="none" stroke="#000000" stroke-opacity="1" stroke-width="1" stroke-linecap="square" stroke-linejoin="bevel" transform="matrix(-2.12766,0,0,-2.12766,14.8936,57.4468)"
font-family="Helvetica" font-size="12.5" font-weight="400" font-style="normal" 
clip-path="url(#clip75)" >
<defs><clipPath id="clip75"><path vector-effect="non-scaling-stroke" fill-rule="evenodd" d="M7,27 L-87,27 L-87,-27 L7,-27 L7,27z "/>
</clipPath></defs></g>

<g fill="#000000" fill-opacity="0" stroke="#000000" stroke-opacity="1" stroke-width="2" stroke-linecap="round" stroke-linejoin="miter" stroke-miterlimit="2" transform="matrix(-2.12766,0,0,-2.12766,14.8936,57.4468)"
font-family="Helvetica" font-size="12.5" font-weight="400" font-style="normal" 
clip-path="url(#clip75)" >
<path vector-effect="none" fill-rule="evenodd" d="M5,-5 L0,0 L5,5"/>
</g>

<g fill="none" stroke="#000000" stroke-opacity="1" stroke-width="1" stroke-linecap="square" stroke-linejoin="bevel" transform="matrix(-2.12766,0,0,-2.12766,14.8936,57.4468)"
font-family="Helvetica" font-size="12.5" font-weight="400" font-style="normal" 
clip-path="url(#clip75)" >
</g>

<g fill="none" stroke="#000000" stroke-opacity="1" stroke-width="1" stroke-linecap="square" stroke-linejoin="bevel" transform="matrix(2.12766,0,0,2.12766,14.8936,4.25532)"
font-family="Helvetica" font-size="12.5" font-weight="400" font-style="normal" 
clip-path="url(#clip76)" >
<defs><clipPath id="clip76"><path vector-effect="non-scaling-stroke" fill-rule="evenodd" d="M-7,-2 L87,-2 L87,52 L-7,52 L-7,-2z "/>
</clipPath></defs></g>

<g fill="#ffffff" fill-opacity="1" stroke="none" transform="matrix(2.12766,0,0,2.12766,14.8936,4.25532)"
font-family="Helvetica" font-size="12.5" font-weight="400" font-style="normal" 
clip-path="url(#clip76)" >
<path vector-effect="none" fill-rule="evenodd" d="M0,0 L80,0 L80,50 L0,50 L0,0z "/>
</g>

<g fill="none" stroke="#000000" stroke-opacity="1" stroke-width="1" stroke-linecap="square" stroke-linejoin="bevel" transform="matrix(2.12766,0,0,2.12766,14.8936,4.25532)"
font-family="Helvetica" font-size="12.5" font-weight="400" font-style="normal" 
clip-path="url(#clip76)" >
</g>

<g fill="none" stroke="#000000" stroke-opacity="1" stroke-width="1" stroke-linecap="square" stroke-linejoin="bevel" transform="matrix(2.12766,0,0,2.12766,14.8936,4.25532)"
font-family="Helvetica" font-size="12.5" font-weight="400" font-style="normal" 
clip-path="url(#clip76)" >
</g>

<g fill="none" stroke="#000000" stroke-opacity="1" stroke-width="1" stroke-linecap="square" stroke-linejoin="bevel" transform="matrix(2.12766,0,0,2.12766,14.8936,4.25532)"
font-family="Helvetica" font-size="12.5" font-weight="400" font-style="normal" 
clip-path="url(#clip77)" >
<defs><clipPath id="clip77"><path vector-effect="non-scaling-stroke" fill-rule="evenodd" d="M0,0 L80,0 L80,50 L0,50 L0,0z "/>
</clipPath></defs></g>

<g fill="none" stroke="#808080" stroke-opacity="1" stroke-width="1" stroke-linecap="square" stroke-linejoin="bevel" transform="matrix(2.12766,0,0,2.12766,21.2766,57.4468)"
font-family="Liberation Sans" font-size="9" font-weight="400" font-style="normal" 
clip-path="url(#clip78)" >
<defs><clipPath id="clip78"><path vector-effect="none" fill-rule="evenodd" d="M-3,-25 L77,-25 L77,25 L-3,25 L-3,-25z "/>
</clipPath></defs></g>

<g fill="none" stroke="#808080" stroke-opacity="1" stroke-width="1" stroke-linecap="square" stroke-linejoin="bevel" transform="matrix(2.12766,0,0,2.12766,21.2766,57.4468)"
font-family="Liberation Sans" font-size="9" font-weight="400" font-style="normal" 
clip-path="url(#clip78)" >
<text textLength="8" fill="#808080" fill-opacity="1" stroke="none" xml:space="preserve" x="0" y="3" font-family="Liberation Sans" font-size="9" font-weight="400" font-style="normal" 
 >In</text>
</g>

<g fill="none" stroke="#808080" stroke-opacity="1" stroke-width="1" stroke-linecap="square" stroke-linejoin="bevel" transform="matrix(2.12766,0,0,2.12766,21.2766,57.4468)"
font-family="Liberation Sans" font-size="9" font-weight="400" font-style="normal" 
clip-path="url(#clip78)" >
</g>

<g fill="none" stroke="#000000" stroke-opacity="1" stroke-width="1" stroke-linecap="square" stroke-linejoin="bevel" transform="matrix(2.12766,0,0,2.12766,178.723,57.4468)"
font-family="Liberation Sans" font-size="9" font-weight="400" font-style="normal" 
clip-path="url(#clip79)" >
<defs><clipPath id="clip79"><path vector-effect="none" fill-rule="evenodd" d="M-77,-25 L3,-25 L3,25 L-77,25 L-77,-25z "/>
</clipPath></defs></g>

<g fill="none" stroke="#000000" stroke-opacity="1" stroke-width="1" stroke-linecap="square" stroke-linejoin="bevel" transform="matrix(2.12766,0,0,2.12766,178.723,57.4468)"
font-family="Liberation Sans" font-size="9" font-weight="400" font-style="normal" 
clip-path="url(#clip79)" >
<text textLength="15" fill="#000000" fill-opacity="1" stroke="none" xml:space="preserve" x="-15" y="3" font-family="Liberation Sans" font-size="9" font-weight="400" font-style="normal" 
 >Out</text>
</g>

<g fill="none" stroke="#000000" stroke-opacity="1" stroke-width="1" stroke-linecap="square" stroke-linejoin="bevel" transform="matrix(2.12766,0,0,2.12766,178.723,57.4468)"
font-family="Liberation Sans" font-size="9" font-weight="400" font-style="normal" 
clip-path="url(#clip79)" >
</g>

<g fill="none" stroke="#808080" stroke-opacity="1" stroke-width="1" stroke-linecap="square" stroke-linejoin="bevel" transform="matrix(2.12766,0,0,2.12766,-90.4255,-122.34)"
font-family="Liberation Sans" font-size="9" font-weight="400" font-style="normal" 
clip-path="url(#clip80)" >
<defs><clipPath id="clip80"><path vector-effect="none" fill-rule="evenodd" d="M50,60 L130,60 L130,110 L50,110 L50,60z "/>
</clipPath></defs><polyline fill="none" vector-effect="none" points="64,76 68,76 " />
</g>

<g fill="none" stroke="#808080" stroke-opacity="1" stroke-width="1" stroke-linecap="square" stroke-linejoin="bevel" transform="matrix(2.12766,0,0,2.12766,-90.4255,-122.34)"
font-family="Liberation Sans" font-size="9" font-weight="400" font-style="normal" 
clip-path="url(#clip80)" >
<polyline fill="none" vector-effect="none" points="68,76 68,70 " />
</g>

<g fill="none" stroke="#808080" stroke-opacity="1" stroke-width="1" stroke-linecap="square" stroke-linejoin="bevel" transform="matrix(2.12766,0,0,2.12766,-90.4255,-122.34)"
font-family="Liberation Sans" font-size="9" font-weight="400" font-style="normal" 
clip-path="url(#clip80)" >
<polyline fill="none" vector-effect="none" points="68,70 74,70 " />
</g>

<g fill="none" stroke="#808080" stroke-opacity="1" stroke-width="1" stroke-linecap="square" stroke-linejoin="bevel" transform="matrix(2.12766,0,0,2.12766,-90.4255,-122.34)"
font-family="Liberation Sans" font-size="9" font-weight="400" font-style="normal" 
clip-path="url(#clip80)" >
<polyline fill="none" vector-effect="none" points="76,70 81,70 " />
</g>

<g fill="none" stroke="#808080" stroke-opacity="1" stroke-width="1" stroke-linecap="square" stroke-linejoin="bevel" transform="matrix(2.12766,0,0,2.12766,-90.4255,-122.34)"
font-family="Liberation Sans" font-size="9" font-weight="400" font-style="normal" 
clip-path="url(#clip80)" >
<polyline fill="none" vector-effect="none" points="83,70 89,70 " />
</g>

<g fill="none" stroke="#808080" stroke-opacity="1" stroke-width="1" stroke-linecap="square" stroke-linejoin="bevel" transform="matrix(2.12766,0,0,2.12766,-90.4255,-122.34)"
font-family="Liberation Sans" font-size="9" font-weight="400" font-style="normal" 
clip-path="url(#clip80)" >
<polyline fill="none" vector-effect="none" points="91,70 96,70 " />
</g>

<g fill="none" stroke="#808080" stroke-opacity="1" stroke-width="1" stroke-linecap="square" stroke-linejoin="bevel" transform="matrix(2.12766,0,0,2.12766,-90.4255,-122.34)"
font-family="Liberation Sans" font-size="9" font-weight="400" font-style="normal" 
clip-path="url(#clip80)" >
<polyline fill="none" vector-effect="none" points="96,76 96,74 " />
</g>

<g fill="none" stroke="#808080" stroke-opacity="1" stroke-width="1" stroke-linecap="square" stroke-linejoin="bevel" transform="matrix(2.12766,0,0,2.12766,-90.4255,-122.34)"
font-family="Liberation Sans" font-size="9" font-weight="400" font-style="normal" 
clip-path="url(#clip80)" >
<polyline fill="none" vector-effect="none" points="96,72 96,70 " />
</g>

<g fill="none" stroke="#808080" stroke-opacity="1" stroke-width="1" stroke-linecap="square" stroke-linejoin="bevel" transform="matrix(2.12766,0,0,2.12766,-90.4255,-122.34)"
font-family="Liberation Sans" font-size="9" font-weight="400" font-style="normal" 
clip-path="url(#clip80)" >
<polyline fill="none" vector-effect="none" points="96,76 99,76 " />
</g>

<g fill="none" stroke="#808080" stroke-opacity="1" stroke-width="1" stroke-linecap="square" stroke-linejoin="bevel" transform="matrix(2.12766,0,0,2.12766,-90.4255,-122.34)"
font-family="Liberation Sans" font-size="9" font-weight="400" font-style="normal" 
clip-path="url(#clip80)" >
<polyline fill="none" vector-effect="none" points="101,76 109,76 " />
</g>

<g fill="none" stroke="#000000" stroke-opacity="1" stroke-width="1" stroke-linecap="square" stroke-linejoin="bevel" transform="matrix(2.12766,0,0,2.12766,-90.4255,-122.34)"
font-family="Liberation Sans" font-size="9" font-weight="400" font-style="normal" 
clip-path="url(#clip80)" >
<polyline fill="none" vector-effect="none" points="64,92 84,92 " />
</g>

<g fill="none" stroke="#000000" stroke-opacity="1" stroke-width="1" stroke-linecap="square" stroke-linejoin="bevel" transform="matrix(2.12766,0,0,2.12766,-90.4255,-122.34)"
font-family="Liberation Sans" font-size="9" font-weight="400" font-style="normal" 
clip-path="url(#clip80)" >
<polyline fill="none" vector-effect="none" points="84,92 84,86 " />
</g>

<g fill="none" stroke="#000000" stroke-opacity="1" stroke-width="1" stroke-linecap="square" stroke-linejoin="bevel" transform="matrix(2.12766,0,0,2.12766,-90.4255,-122.34)"
font-family="Liberation Sans" font-size="9" font-weight="400" font-style="normal" 
clip-path="url(#clip80)" >
<polyline fill="none" vector-effect="none" points="84,86 101,86 " />
</g>

<g fill="none" stroke="#000000" stroke-opacity="1" stroke-width="1" stroke-linecap="square" stroke-linejoin="bevel" transform="matrix(2.12766,0,0,2.12766,-90.4255,-122.34)"
font-family="Liberation Sans" font-size="9" font-weight="400" font-style="normal" 
clip-path="url(#clip80)" >
<polyline fill="none" vector-effect="none" points="101,86 101,92 " />
</g>

<g fill="none" stroke="#000000" stroke-opacity="1" stroke-width="1" stroke-linecap="square" stroke-linejoin="bevel" transform="matrix(2.12766,0,0,2.12766,-90.4255,-122.34)"
font-family="Liberation Sans" font-size="9" font-weight="400" font-style="normal" 
clip-path="url(#clip80)" >
<polyline fill="none" vector-effect="none" points="101,92 109,92 " />
</g>

<g fill="none" stroke="#000000" stroke-opacity="1" stroke-width="1" stroke-linecap="square" stroke-linejoin="bevel" transform="matrix(2.12766,0,0,2.12766,-90.4255,-122.34)"
font-family="Liberation Sans" font-size="9" font-weight="400" font-style="normal" 
clip-path="url(#clip81)" >
<defs><clipPath id="clip81"><path vector-effect="none" fill-rule="evenodd" d="M-7,-2 L87,-2 L87,52 L-7,52 L-7,-2z "/>
</clipPath></defs></g>

<g fill="none" stroke="#000000" stroke-opacity="1" stroke-width="1" stroke-linecap="square" stroke-linejoin="bevel" transform="matrix(1,0,0,1,0,0)"
font-family="Liberation Sans" font-size="9" font-weight="400" font-style="normal" 
clip-path="url(#clip81)" >
</g>

<g fill="none" stroke="#000000" stroke-opacity="1" stroke-width="1" stroke-linecap="square" stroke-linejoin="bevel" transform="matrix(2.12766,0,0,2.12766,14.8936,4.25532)"
font-family="Helvetica" font-size="12.5" font-weight="400" font-style="normal" 
clip-path="url(#clip81)" >
</g>

<g fill="none" stroke="#000000" stroke-opacity="1" stroke-width="1" stroke-linecap="square" stroke-linejoin="bevel" transform="matrix(2.12766,0,0,2.12766,14.8936,4.25532)"
font-family="Helvetica" font-size="12.5" font-weight="400" font-style="normal" 
clip-path="url(#clip81)" >
</g>

<g fill="none" stroke="#000000" stroke-opacity="1" stroke-width="0.739331" stroke-linecap="butt" stroke-linejoin="miter" stroke-miterlimit="2" transform="matrix(2.12766,0,0,2.12766,14.8936,4.25532)"
font-family="Helvetica" font-size="12.5" font-weight="400" font-style="normal" 
clip-path="url(#clip81)" >
<path vector-effect="none" fill-rule="evenodd" d="M0,0 L80,0 L80,50 L0,50 L0,0z "/>
</g>

<g fill="none" stroke="#000000" stroke-opacity="1" stroke-width="1" stroke-linecap="square" stroke-linejoin="bevel" transform="matrix(2.12766,0,0,2.12766,14.8936,4.25532)"
font-family="Helvetica" font-size="12.5" font-weight="400" font-style="normal" 
clip-path="url(#clip81)" >
</g>

<g fill="none" stroke="#000000" stroke-opacity="1" stroke-width="1" stroke-linecap="square" stroke-linejoin="bevel" transform="matrix(1,0,0,1,0,0)"
font-family="Helvetica" font-size="12.5" font-weight="400" font-style="normal" 
>
</g>

<g fill="none" stroke="#000000" stroke-opacity="1" stroke-width="1" stroke-linecap="square" stroke-linejoin="bevel" transform="matrix(1,0,0,1,0,0)"
font-family="Helvetica" font-size="12.5" font-weight="400" font-style="normal" 
>
</g>

<g fill="none" stroke="#000000" stroke-opacity="1" stroke-width="1" stroke-linecap="square" stroke-linejoin="bevel" transform="matrix(1,0,0,1,0,0)"
font-family="Helvetica" font-size="12.5" font-weight="400" font-style="normal" 
clip-path="url(#clip82)" >
<defs><clipPath id="clip82"><path vector-effect="non-scaling-stroke" fill-rule="evenodd" d="M0,0 L200,0 L200,114 L0,114 L0,0z "/>
</clipPath></defs></g>

<g fill="none" stroke="#000000" stroke-opacity="1" stroke-width="1" stroke-linecap="square" stroke-linejoin="bevel" transform="matrix(1,0,0,1,0,0)"
font-family="Helvetica" font-size="12.5" font-weight="400" font-style="normal" 
>
</g>

<g fill="none" stroke="#000000" stroke-opacity="1" stroke-width="1" stroke-linecap="square" stroke-linejoin="bevel" transform="matrix(1,0,0,1,0,0)"
font-family="Helvetica" font-size="12.5" font-weight="400" font-style="normal" 
>
</g>

<g fill="none" stroke="#000000" stroke-opacity="1" stroke-width="1" stroke-linecap="square" stroke-linejoin="bevel" transform="matrix(1,0,0,1,0,0)"
font-family="Helvetica" font-size="12.5" font-weight="400" font-style="normal" 
clip-path="url(#clip83)" >
<defs><clipPath id="clip83"><path vector-effect="non-scaling-stroke" fill-rule="evenodd" d="M0,0 L1,0 L1,1 L0,1 L0,0z "/>
</clipPath></defs></g>

<g fill="none" stroke="#000000" stroke-opacity="1" stroke-width="1" stroke-linecap="square" stroke-linejoin="bevel" transform="matrix(1,0,0,1,0,0)"
font-family="Helvetica" font-size="12.5" font-weight="400" font-style="normal" 
>
</g>

<g fill="none" stroke="#000000" stroke-opacity="1" stroke-width="1" stroke-linecap="square" stroke-linejoin="bevel" transform="matrix(1,0,0,1,0,0)"
font-family="Helvetica" font-size="12.5" font-weight="400" font-style="normal" 
>
</g>
</g>
</svg>
