<?xml version="1.0" encoding="UTF-8" standalone="no"?>
<svg width="67.7333mm" height="38.608mm"
 viewBox="0 0 200 114"
 xmlns="http://www.w3.org/2000/svg" xmlns:xlink="http://www.w3.org/1999/xlink"  version="1.2" baseProfile="tiny">
<defs>
</defs>
<g fill="none" stroke="black" stroke-width="1" fill-rule="evenodd" stroke-linecap="square" stroke-linejoin="bevel" >

<g fill="#ffffff" fill-opacity="0" stroke="none" transform="matrix(1,0,0,1,0,0)"
font-family="Helvetica" font-size="12.5" font-weight="400" font-style="normal" 
>
<path vector-effect="non-scaling-stroke" fill-rule="evenodd" d="M0,0 L200,0 L200,114 L0,114 L0,0z "/>
</g>

<g fill="none" stroke="#000000" stroke-opacity="1" stroke-width="1" stroke-linecap="square" stroke-linejoin="bevel" transform="matrix(1,0,0,1,0,0)"
font-family="Helvetica" font-size="12.5" font-weight="400" font-style="normal" 
>
</g>

<g fill="none" stroke="#000000" stroke-opacity="1" stroke-width="1" stroke-linecap="square" stroke-linejoin="bevel" transform="matrix(1,0,0,1,0,0)"
font-family="Helvetica" font-size="12.5" font-weight="400" font-style="normal" 
clip-path="url(#clip84)" >
<defs><clipPath id="clip84"><path vector-effect="non-scaling-stroke" fill-rule="evenodd" d="M0,0 L200,0 L200,114.894 L0,114.894 L0,0z "/>
</clipPath></defs></g>

<g fill="none" stroke="#000000" stroke-opacity="1" stroke-width="1" stroke-linecap="square" stroke-linejoin="bevel" transform="matrix(2.12766,0,0,2.12766,185.106,57.4468)"
font-family="Helvetica" font-size="12.5" font-weight="400" font-style="normal" 
clip-path="url(#clip85)" >
<defs><clipPath id="clip85"><path vector-effect="non-scaling-stroke" fill-rule="evenodd" d="M-87,-27 L7,-27 L7,27 L-87,27 L-87,-27z "/>
</clipPath></defs></g>

<g fill="#000000" fill-opacity="0" stroke="#000000" stroke-opacity="1" stroke-width="2" stroke-linecap="round" stroke-linejoin="miter" stroke-miterlimit="2" transform="matrix(2.12766,0,0,2.12766,185.106,57.4468)"
font-family="Helvetica" font-size="12.5" font-weight="400" font-style="normal" 
clip-path="url(#clip85)" >
<path vector-effect="none" fill-rule="evenodd" d="M0,-5 L5,0 L0,5"/>
</g>

<g fill="none" stroke="#000000" stroke-opacity="1" stroke-width="1" stroke-linecap="square" stroke-linejoin="bevel" transform="matrix(2.12766,0,0,2.12766,185.106,57.4468)"
font-family="Helvetica" font-size="12.5" font-weight="400" font-style="normal" 
clip-path="url(#clip85)" >
</g>

<g fill="none" stroke="#000000" stroke-opacity="1" stroke-width="1" stroke-linecap="square" stroke-linejoin="bevel" transform="matrix(-2.12766,0,0,-2.12766,14.8936,57.4468)"
font-family="Helvetica" font-size="12.5" font-weight="400" font-style="normal" 
clip-path="url(#clip86)" >
<defs><clipPath id="clip86"><path vector-effect="non-scaling-stroke" fill-rule="evenodd" d="M7,27 L-87,27 L-87,-27 L7,-27 L7,27z "/>
</clipPath></defs></g>

<g fill="#000000" fill-opacity="0" stroke="#000000" stroke-opacity="1" stroke-width="2" stroke-linecap="round" stroke-linejoin="miter" stroke-miterlimit="2" transform="matrix(-2.12766,0,0,-2.12766,14.8936,57.4468)"
font-family="Helvetica" font-size="12.5" font-weight="400" font-style="normal" 
clip-path="url(#clip86)" >
<path vector-effect="none" fill-rule="evenodd" d="M5,-5 L0,0 L5,5"/>
</g>

<g fill="none" stroke="#000000" stroke-opacity="1" stroke-width="1" stroke-linecap="square" stroke-linejoin="bevel" transform="matrix(-2.12766,0,0,-2.12766,14.8936,57.4468)"
font-family="Helvetica" font-size="12.5" font-weight="400" font-style="normal" 
clip-path="url(#clip86)" >
</g>

<g fill="none" stroke="#000000" stroke-opacity="1" stroke-width="1" stroke-linecap="square" stroke-linejoin="bevel" transform="matrix(2.12766,0,0,2.12766,14.8936,4.25532)"
font-family="Helvetica" font-size="12.5" font-weight="400" font-style="normal" 
clip-path="url(#clip87)" >
<defs><clipPath id="clip87"><path vector-effect="non-scaling-stroke" fill-rule="evenodd" d="M-7,-2 L87,-2 L87,52 L-7,52 L-7,-2z "/>
</clipPath></defs></g>

<g fill="#ffffff" fill-opacity="1" stroke="none" transform="matrix(2.12766,0,0,2.12766,14.8936,4.25532)"
font-family="Helvetica" font-size="12.5" font-weight="400" font-style="normal" 
clip-path="url(#clip87)" >
<path vector-effect="none" fill-rule="evenodd" d="M0,0 L80,0 L80,50 L0,50 L0,0z "/>
</g>

<g fill="none" stroke="#000000" stroke-opacity="1" stroke-width="1" stroke-linecap="square" stroke-linejoin="bevel" transform="matrix(2.12766,0,0,2.12766,14.8936,4.25532)"
font-family="Helvetica" font-size="12.5" font-weight="400" font-style="normal" 
clip-path="url(#clip87)" >
</g>

<g fill="none" stroke="#000000" stroke-opacity="1" stroke-width="1" stroke-linecap="square" stroke-linejoin="bevel" transform="matrix(2.12766,0,0,2.12766,14.8936,4.25532)"
font-family="Helvetica" font-size="12.5" font-weight="400" font-style="normal" 
clip-path="url(#clip87)" >
</g>

<g fill="none" stroke="#000000" stroke-opacity="1" stroke-width="1" stroke-linecap="square" stroke-linejoin="bevel" transform="matrix(2.12766,0,0,2.12766,14.8936,4.25532)"
font-family="Helvetica" font-size="12.5" font-weight="400" font-style="normal" 
clip-path="url(#clip88)" >
<defs><clipPath id="clip88"><path vector-effect="non-scaling-stroke" fill-rule="evenodd" d="M0,0 L80,0 L80,50 L0,50 L0,0z "/>
</clipPath></defs></g>

<g fill="none" stroke="#808080" stroke-opacity="1" stroke-width="1" stroke-linecap="square" stroke-linejoin="bevel" transform="matrix(2.12766,0,0,2.12766,21.2766,57.4468)"
font-family="Liberation Sans" font-size="9" font-weight="400" font-style="normal" 
clip-path="url(#clip89)" >
<defs><clipPath id="clip89"><path vector-effect="none" fill-rule="evenodd" d="M-3,-25 L77,-25 L77,25 L-3,25 L-3,-25z "/>
</clipPath></defs></g>

<g fill="none" stroke="#808080" stroke-opacity="1" stroke-width="1" stroke-linecap="square" stroke-linejoin="bevel" transform="matrix(2.12766,0,0,2.12766,21.2766,57.4468)"
font-family="Liberation Sans" font-size="9" font-weight="400" font-style="normal" 
clip-path="url(#clip89)" >
<text textLength="8" fill="#808080" fill-opacity="1" stroke="none" xml:space="preserve" x="0" y="3" font-family="Liberation Sans" font-size="9" font-weight="400" font-style="normal" 
 >In</text>
</g>

<g fill="none" stroke="#808080" stroke-opacity="1" stroke-width="1" stroke-linecap="square" stroke-linejoin="bevel" transform="matrix(2.12766,0,0,2.12766,21.2766,57.4468)"
font-family="Liberation Sans" font-size="9" font-weight="400" font-style="normal" 
clip-path="url(#clip89)" >
</g>

<g fill="none" stroke="#000000" stroke-opacity="1" stroke-width="1" stroke-linecap="square" stroke-linejoin="bevel" transform="matrix(2.12766,0,0,2.12766,178.723,57.4468)"
font-family="Liberation Sans" font-size="9" font-weight="400" font-style="normal" 
clip-path="url(#clip90)" >
<defs><clipPath id="clip90"><path vector-effect="none" fill-rule="evenodd" d="M-77,-25 L3,-25 L3,25 L-77,25 L-77,-25z "/>
</clipPath></defs></g>

<g fill="none" stroke="#000000" stroke-opacity="1" stroke-width="1" stroke-linecap="square" stroke-linejoin="bevel" transform="matrix(2.12766,0,0,2.12766,178.723,57.4468)"
font-family="Liberation Sans" font-size="9" font-weight="400" font-style="normal" 
clip-path="url(#clip90)" >
<text textLength="15" fill="#000000" fill-opacity="1" stroke="none" xml:space="preserve" x="-15" y="3" font-family="Liberation Sans" font-size="9" font-weight="400" font-style="normal" 
 >Out</text>
</g>

<g fill="none" stroke="#000000" stroke-opacity="1" stroke-width="1" stroke-linecap="square" stroke-linejoin="bevel" transform="matrix(2.12766,0,0,2.12766,178.723,57.4468)"
font-family="Liberation Sans" font-size="9" font-weight="400" font-style="normal" 
clip-path="url(#clip90)" >
</g>

<g fill="none" stroke="#808080" stroke-opacity="1" stroke-width="1" stroke-linecap="square" stroke-linejoin="bevel" transform="matrix(2.12766,0,0,2.12766,-632.979,-132.979)"
font-family="Liberation Sans" font-size="9" font-weight="400" font-style="normal" 
clip-path="url(#clip91)" >
<defs><clipPath id="clip91"><path vector-effect="none" fill-rule="evenodd" d="M305,65 L385,65 L385,115 L305,115 L305,65z "/>
</clipPath></defs><polyline fill="none" vector-effect="none" points="319,81 323,81 " />
</g>

<g fill="none" stroke="#808080" stroke-opacity="1" stroke-width="1" stroke-linecap="square" stroke-linejoin="bevel" transform="matrix(2.12766,0,0,2.12766,-632.979,-132.979)"
font-family="Liberation Sans" font-size="9" font-weight="400" font-style="normal" 
clip-path="url(#clip91)" >
<polyline fill="none" vector-effect="none" points="323,81 323,75 " />
</g>

<g fill="none" stroke="#808080" stroke-opacity="1" stroke-width="1" stroke-linecap="square" stroke-linejoin="bevel" transform="matrix(2.12766,0,0,2.12766,-632.979,-132.979)"
font-family="Liberation Sans" font-size="9" font-weight="400" font-style="normal" 
clip-path="url(#clip91)" >
<polyline fill="none" vector-effect="none" points="323,75 338,75 " />
</g>

<g fill="none" stroke="#808080" stroke-opacity="1" stroke-width="1" stroke-linecap="square" stroke-linejoin="bevel" transform="matrix(2.12766,0,0,2.12766,-632.979,-132.979)"
font-family="Liberation Sans" font-size="9" font-weight="400" font-style="normal" 
clip-path="url(#clip91)" >
<polyline fill="none" vector-effect="none" points="338,75 338,81 " />
</g>

<g fill="none" stroke="#808080" stroke-opacity="1" stroke-width="1" stroke-linecap="square" stroke-linejoin="bevel" transform="matrix(2.12766,0,0,2.12766,-632.979,-132.979)"
font-family="Liberation Sans" font-size="9" font-weight="400" font-style="normal" 
clip-path="url(#clip91)" >
<polyline fill="none" vector-effect="none" points="338,81 364,81 " />
</g>

<g fill="none" stroke="#000000" stroke-opacity="1" stroke-width="1" stroke-linecap="square" stroke-linejoin="bevel" transform="matrix(2.12766,0,0,2.12766,-632.979,-132.979)"
font-family="Liberation Sans" font-size="9" font-weight="400" font-style="normal" 
clip-path="url(#clip91)" >
<polyline fill="none" vector-effect="none" points="319,97 323,97 " />
</g>

<g fill="none" stroke="#000000" stroke-opacity="1" stroke-width="1" stroke-linecap="square" stroke-linejoin="bevel" transform="matrix(2.12766,0,0,2.12766,-632.979,-132.979)"
font-family="Liberation Sans" font-size="9" font-weight="400" font-style="normal" 
clip-path="url(#clip91)" >
<polyline fill="none" vector-effect="none" points="323,97 323,91 " />
</g>

<g fill="none" stroke="#000000" stroke-opacity="1" stroke-width="1" stroke-linecap="square" stroke-linejoin="bevel" transform="matrix(2.12766,0,0,2.12766,-632.979,-132.979)"
font-family="Liberation Sans" font-size="9" font-weight="400" font-style="normal" 
clip-path="url(#clip91)" >
<polyline fill="none" vector-effect="none" points="323,91 356,91 " />
</g>

<g fill="none" stroke="#000000" stroke-opacity="1" stroke-width="1" stroke-linecap="square" stroke-linejoin="bevel" transform="matrix(2.12766,0,0,2.12766,-632.979,-132.979)"
font-family="Liberation Sans" font-size="9" font-weight="400" font-style="normal" 
clip-path="url(#clip91)" >
<polyline fill="none" vector-effect="none" points="356,91 356,97 " />
</g>

<g fill="none" stroke="#000000" stroke-opacity="1" stroke-width="1" stroke-linecap="square" stroke-linejoin="bevel" transform="matrix(2.12766,0,0,2.12766,-632.979,-132.979)"
font-family="Liberation Sans" font-size="9" font-weight="400" font-style="normal" 
clip-path="url(#clip91)" >
<polyline fill="none" vector-effect="none" points="356,97 364,97 " />
</g>

<g fill="none" stroke="#000000" stroke-opacity="1" stroke-width="1" stroke-linecap="square" stroke-linejoin="bevel" transform="matrix(2.12766,0,0,2.12766,-632.979,-132.979)"
font-family="Liberation Sans" font-size="9" font-weight="400" font-style="normal" 
clip-path="url(#clip92)" >
<defs><clipPath id="clip92"><path vector-effect="none" fill-rule="evenodd" d="M-7,-2 L87,-2 L87,52 L-7,52 L-7,-2z "/>
</clipPath></defs></g>

<g fill="none" stroke="#000000" stroke-opacity="1" stroke-width="1" stroke-linecap="square" stroke-linejoin="bevel" transform="matrix(1,0,0,1,0,0)"
font-family="Liberation Sans" font-size="9" font-weight="400" font-style="normal" 
clip-path="url(#clip92)" >
</g>

<g fill="none" stroke="#000000" stroke-opacity="1" stroke-width="1" stroke-linecap="square" stroke-linejoin="bevel" transform="matrix(2.12766,0,0,2.12766,14.8936,4.25532)"
font-family="Helvetica" font-size="12.5" font-weight="400" font-style="normal" 
clip-path="url(#clip92)" >
</g>

<g fill="none" stroke="#000000" stroke-opacity="1" stroke-width="1" stroke-linecap="square" stroke-linejoin="bevel" transform="matrix(2.12766,0,0,2.12766,14.8936,4.25532)"
font-family="Helvetica" font-size="12.5" font-weight="400" font-style="normal" 
clip-path="url(#clip92)" >
</g>

<g fill="none" stroke="#000000" stroke-opacity="1" stroke-width="0.739331" stroke-linecap="butt" stroke-linejoin="miter" stroke-miterlimit="2" transform="matrix(2.12766,0,0,2.12766,14.8936,4.25532)"
font-family="Helvetica" font-size="12.5" font-weight="400" font-style="normal" 
clip-path="url(#clip92)" >
<path vector-effect="none" fill-rule="evenodd" d="M0,0 L80,0 L80,50 L0,50 L0,0z "/>
</g>

<g fill="none" stroke="#000000" stroke-opacity="1" stroke-width="1" stroke-linecap="square" stroke-linejoin="bevel" transform="matrix(2.12766,0,0,2.12766,14.8936,4.25532)"
font-family="Helvetica" font-size="12.5" font-weight="400" font-style="normal" 
clip-path="url(#clip92)" >
</g>

<g fill="none" stroke="#000000" stroke-opacity="1" stroke-width="1" stroke-linecap="square" stroke-linejoin="bevel" transform="matrix(1,0,0,1,0,0)"
font-family="Helvetica" font-size="12.5" font-weight="400" font-style="normal" 
>
</g>

<g fill="none" stroke="#000000" stroke-opacity="1" stroke-width="1" stroke-linecap="square" stroke-linejoin="bevel" transform="matrix(1,0,0,1,0,0)"
font-family="Helvetica" font-size="12.5" font-weight="400" font-style="normal" 
>
</g>

<g fill="none" stroke="#000000" stroke-opacity="1" stroke-width="1" stroke-linecap="square" stroke-linejoin="bevel" transform="matrix(1,0,0,1,0,0)"
font-family="Helvetica" font-size="12.5" font-weight="400" font-style="normal" 
clip-path="url(#clip93)" >
<defs><clipPath id="clip93"><path vector-effect="non-scaling-stroke" fill-rule="evenodd" d="M0,0 L200,0 L200,114 L0,114 L0,0z "/>
</clipPath></defs></g>

<g fill="none" stroke="#000000" stroke-opacity="1" stroke-width="1" stroke-linecap="square" stroke-linejoin="bevel" transform="matrix(1,0,0,1,0,0)"
font-family="Helvetica" font-size="12.5" font-weight="400" font-style="normal" 
>
</g>

<g fill="none" stroke="#000000" stroke-opacity="1" stroke-width="1" stroke-linecap="square" stroke-linejoin="bevel" transform="matrix(1,0,0,1,0,0)"
font-family="Helvetica" font-size="12.5" font-weight="400" font-style="normal" 
>
</g>

<g fill="none" stroke="#000000" stroke-opacity="1" stroke-width="1" stroke-linecap="square" stroke-linejoin="bevel" transform="matrix(1,0,0,1,0,0)"
font-family="Helvetica" font-size="12.5" font-weight="400" font-style="normal" 
clip-path="url(#clip94)" >
<defs><clipPath id="clip94"><path vector-effect="non-scaling-stroke" fill-rule="evenodd" d="M0,0 L1,0 L1,1 L0,1 L0,0z "/>
</clipPath></defs></g>

<g fill="none" stroke="#000000" stroke-opacity="1" stroke-width="1" stroke-linecap="square" stroke-linejoin="bevel" transform="matrix(1,0,0,1,0,0)"
font-family="Helvetica" font-size="12.5" font-weight="400" font-style="normal" 
>
</g>

<g fill="none" stroke="#000000" stroke-opacity="1" stroke-width="1" stroke-linecap="square" stroke-linejoin="bevel" transform="matrix(1,0,0,1,0,0)"
font-family="Helvetica" font-size="12.5" font-weight="400" font-style="normal" 
>
</g>
</g>
</svg>
