<?xml version="1.0" encoding="UTF-8" standalone="no"?>
<svg width="52.9167mm" height="23.0187mm"
 viewBox="0 0 200 87"
 xmlns="http://www.w3.org/2000/svg" xmlns:xlink="http://www.w3.org/1999/xlink"  version="1.2" baseProfile="tiny">
<defs>
</defs>
<g fill="none" stroke="black" stroke-width="1" fill-rule="evenodd" stroke-linecap="square" stroke-linejoin="bevel" >

<g fill="#ffffff" fill-opacity="0" stroke="none" transform="matrix(1,0,0,1,0,0)"
font-family="Helvetica" font-size="16" font-weight="400" font-style="normal" 
>
<path vector-effect="non-scaling-stroke" fill-rule="evenodd" d="M0,0 L200,0 L200,87 L0,87 L0,0z "/>
</g>

<g fill="none" stroke="#000000" stroke-opacity="1" stroke-width="1" stroke-linecap="square" stroke-linejoin="bevel" transform="matrix(1,0,0,1,0,0)"
font-family="Helvetica" font-size="16" font-weight="400" font-style="normal" 
>
</g>

<g fill="none" stroke="#000000" stroke-opacity="1" stroke-width="1" stroke-linecap="square" stroke-linejoin="bevel" transform="matrix(1,0,0,1,0,0)"
font-family="Helvetica" font-size="16" font-weight="400" font-style="normal" 
clip-path="url(#clip5944)" >
<defs><clipPath id="clip5944"><path vector-effect="non-scaling-stroke" fill-rule="evenodd" d="M0,0 L200,0 L200,87.395 L0,87.395 L0,0z "/>
</clipPath></defs></g>

<g fill="none" stroke="#000000" stroke-opacity="1" stroke-width="1" stroke-linecap="square" stroke-linejoin="bevel" transform="matrix(-1.68067,0,0,-1.68067,11.7647,43.6975)"
font-family="Helvetica" font-size="16" font-weight="400" font-style="normal" 
clip-path="url(#clip5945)" >
<defs><clipPath id="clip5945"><path vector-effect="non-scaling-stroke" fill-rule="evenodd" d="M7,26 L-112,26 L-112,-26 L7,-26 L7,26z "/>
</clipPath></defs></g>

<g fill="#000000" fill-opacity="0" stroke="#000000" stroke-opacity="1" stroke-width="2" stroke-linecap="round" stroke-linejoin="miter" stroke-miterlimit="2" transform="matrix(-1.68067,0,0,-1.68067,11.7647,43.6975)"
font-family="Helvetica" font-size="16" font-weight="400" font-style="normal" 
clip-path="url(#clip5945)" >
<path vector-effect="none" fill-rule="evenodd" d="M5,-5 L0,0 L5,5"/>
</g>

<g fill="none" stroke="#000000" stroke-opacity="1" stroke-width="1" stroke-linecap="square" stroke-linejoin="bevel" transform="matrix(-1.68067,0,0,-1.68067,11.7647,43.6975)"
font-family="Helvetica" font-size="16" font-weight="400" font-style="normal" 
clip-path="url(#clip5945)" >
</g>

<g fill="none" stroke="#000000" stroke-opacity="1" stroke-width="1" stroke-linecap="square" stroke-linejoin="bevel" transform="matrix(1.68067,0,0,1.68067,11.7647,3.36134)"
font-family="Helvetica" font-size="16" font-weight="400" font-style="normal" 
clip-path="url(#clip5946)" >
<defs><clipPath id="clip5946"><path vector-effect="non-scaling-stroke" fill-rule="evenodd" d="M-7,-2 L112,-2 L112,50 L-7,50 L-7,-2z "/>
</clipPath></defs></g>

<g fill="#ffffff" fill-opacity="1" stroke="none" transform="matrix(1.68067,0,0,1.68067,11.7647,3.36134)"
font-family="Helvetica" font-size="16" font-weight="400" font-style="normal" 
clip-path="url(#clip5946)" >
<path vector-effect="none" fill-rule="evenodd" d="M0,0 L110,0 L110,48 L0,48 L0,0z "/>
</g>

<g fill="none" stroke="#000000" stroke-opacity="1" stroke-width="1" stroke-linecap="square" stroke-linejoin="bevel" transform="matrix(1.68067,0,0,1.68067,11.7647,3.36134)"
font-family="Helvetica" font-size="16" font-weight="400" font-style="normal" 
clip-path="url(#clip5946)" >
</g>

<g fill="none" stroke="#000000" stroke-opacity="1" stroke-width="1" stroke-linecap="square" stroke-linejoin="bevel" transform="matrix(1.68067,0,0,1.68067,11.7647,3.36134)"
font-family="Helvetica" font-size="16" font-weight="400" font-style="normal" 
clip-path="url(#clip5946)" >
</g>

<g fill="none" stroke="#000000" stroke-opacity="1" stroke-width="1" stroke-linecap="square" stroke-linejoin="bevel" transform="matrix(1.68067,0,0,1.68067,11.7647,3.36134)"
font-family="Helvetica" font-size="16" font-weight="400" font-style="normal" 
clip-path="url(#clip5947)" >
<defs><clipPath id="clip5947"><path vector-effect="non-scaling-stroke" fill-rule="evenodd" d="M0,0 L110,0 L110,48 L0,48 L0,0z "/>
</clipPath></defs></g>

<g fill="none" stroke="#000000" stroke-opacity="1" stroke-width="1" stroke-linecap="square" stroke-linejoin="bevel" transform="matrix(1.68067,0,0,1.68067,104.202,33.6134)"
font-family="Helvetica" font-size="10" font-weight="400" font-style="normal" 
clip-path="url(#clip5948)" >
<defs><clipPath id="clip5948"><path vector-effect="none" fill-rule="evenodd" d="M-55,-18 L55,-18 L55,30 L-55,30 L-55,-18z "/>
</clipPath></defs></g>

<g fill="none" stroke="#000000" stroke-opacity="1" stroke-width="1" stroke-linecap="square" stroke-linejoin="bevel" transform="matrix(1.68067,0,0,1.68067,104.202,33.6134)"
font-family="Helvetica" font-size="10" font-weight="400" font-style="normal" 
clip-path="url(#clip5948)" >
<text textLength="16" fill="#000000" fill-opacity="1" stroke="none" xml:space="preserve" x="-8" y="3" font-family="Helvetica" font-size="10" font-weight="400" font-style="normal" 
 >Set</text>
</g>

<g fill="none" stroke="#000000" stroke-opacity="1" stroke-width="1" stroke-linecap="square" stroke-linejoin="bevel" transform="matrix(1.68067,0,0,1.68067,104.202,33.6134)"
font-family="Helvetica" font-size="10" font-weight="400" font-style="normal" 
clip-path="url(#clip5948)" >
</g>

<g fill="none" stroke="#000000" stroke-opacity="1" stroke-width="1" stroke-linecap="square" stroke-linejoin="bevel" transform="matrix(1.68067,0,0,1.68067,104.202,53.7815)"
font-family="Helvetica" font-size="10" font-weight="400" font-style="normal" 
clip-path="url(#clip5949)" >
<defs><clipPath id="clip5949"><path vector-effect="none" fill-rule="evenodd" d="M-55,-30 L55,-30 L55,18 L-55,18 L-55,-30z "/>
</clipPath></defs></g>

<g fill="none" stroke="#000000" stroke-opacity="1" stroke-width="1" stroke-linecap="square" stroke-linejoin="bevel" transform="matrix(1.68067,0,0,1.68067,104.202,53.7815)"
font-family="Helvetica" font-size="10" font-weight="400" font-style="normal" 
clip-path="url(#clip5949)" >
<text textLength="83" fill="#000000" fill-opacity="1" stroke="none" xml:space="preserve" x="-41" y="3" font-family="Helvetica" font-size="10" font-weight="400" font-style="normal" 
 >Overload Counter</text>
</g>

<g fill="none" stroke="#000000" stroke-opacity="1" stroke-width="1" stroke-linecap="square" stroke-linejoin="bevel" transform="matrix(1.68067,0,0,1.68067,104.202,53.7815)"
font-family="Helvetica" font-size="10" font-weight="400" font-style="normal" 
clip-path="url(#clip5949)" >
</g>

<g fill="none" stroke="#000000" stroke-opacity="1" stroke-width="1" stroke-linecap="square" stroke-linejoin="bevel" transform="matrix(1.68067,0,0,1.68067,104.202,53.7815)"
font-family="Helvetica" font-size="10" font-weight="400" font-style="normal" 
clip-path="url(#clip5950)" >
<defs><clipPath id="clip5950"><path vector-effect="none" fill-rule="evenodd" d="M-7,-2 L112,-2 L112,50 L-7,50 L-7,-2z "/>
</clipPath></defs></g>

<g fill="none" stroke="#000000" stroke-opacity="1" stroke-width="1" stroke-linecap="square" stroke-linejoin="bevel" transform="matrix(1,0,0,1,0,0)"
font-family="Helvetica" font-size="10" font-weight="400" font-style="normal" 
clip-path="url(#clip5950)" >
</g>

<g fill="none" stroke="#000000" stroke-opacity="1" stroke-width="1" stroke-linecap="square" stroke-linejoin="bevel" transform="matrix(1.68067,0,0,1.68067,11.7647,3.36134)"
font-family="Helvetica" font-size="16" font-weight="400" font-style="normal" 
clip-path="url(#clip5950)" >
</g>

<g fill="none" stroke="#000000" stroke-opacity="1" stroke-width="1" stroke-linecap="square" stroke-linejoin="bevel" transform="matrix(1.68067,0,0,1.68067,11.7647,3.36134)"
font-family="Helvetica" font-size="16" font-weight="400" font-style="normal" 
clip-path="url(#clip5950)" >
</g>

<g fill="none" stroke="#000000" stroke-opacity="1" stroke-width="0.812469" stroke-linecap="butt" stroke-linejoin="miter" stroke-miterlimit="2" transform="matrix(1.68067,0,0,1.68067,11.7647,3.36134)"
font-family="Helvetica" font-size="16" font-weight="400" font-style="normal" 
clip-path="url(#clip5950)" >
<path vector-effect="none" fill-rule="evenodd" d="M0,0 L110,0 L110,48 L0,48 L0,0z "/>
</g>

<g fill="none" stroke="#000000" stroke-opacity="1" stroke-width="1" stroke-linecap="square" stroke-linejoin="bevel" transform="matrix(1.68067,0,0,1.68067,11.7647,3.36134)"
font-family="Helvetica" font-size="16" font-weight="400" font-style="normal" 
clip-path="url(#clip5950)" >
</g>

<g fill="none" stroke="#000000" stroke-opacity="1" stroke-width="1" stroke-linecap="square" stroke-linejoin="bevel" transform="matrix(1,0,0,1,0,0)"
font-family="Helvetica" font-size="16" font-weight="400" font-style="normal" 
>
</g>

<g fill="none" stroke="#000000" stroke-opacity="1" stroke-width="1" stroke-linecap="square" stroke-linejoin="bevel" transform="matrix(1,0,0,1,0,0)"
font-family="Helvetica" font-size="16" font-weight="400" font-style="normal" 
>
</g>

<g fill="none" stroke="#000000" stroke-opacity="1" stroke-width="1" stroke-linecap="square" stroke-linejoin="bevel" transform="matrix(1,0,0,1,0,0)"
font-family="Helvetica" font-size="16" font-weight="400" font-style="normal" 
clip-path="url(#clip5951)" >
<defs><clipPath id="clip5951"><path vector-effect="non-scaling-stroke" fill-rule="evenodd" d="M0,0 L200,0 L200,87 L0,87 L0,0z "/>
</clipPath></defs></g>

<g fill="none" stroke="#000000" stroke-opacity="1" stroke-width="1" stroke-linecap="square" stroke-linejoin="bevel" transform="matrix(1,0,0,1,0,0)"
font-family="Helvetica" font-size="16" font-weight="400" font-style="normal" 
>
</g>

<g fill="none" stroke="#000000" stroke-opacity="1" stroke-width="1" stroke-linecap="square" stroke-linejoin="bevel" transform="matrix(1,0,0,1,0,0)"
font-family="Helvetica" font-size="16" font-weight="400" font-style="normal" 
>
</g>

<g fill="none" stroke="#000000" stroke-opacity="1" stroke-width="1" stroke-linecap="square" stroke-linejoin="bevel" transform="matrix(1,0,0,1,0,0)"
font-family="Helvetica" font-size="16" font-weight="400" font-style="normal" 
clip-path="url(#clip5952)" >
<defs><clipPath id="clip5952"><path vector-effect="non-scaling-stroke" fill-rule="evenodd" d="M0,0 L1,0 L1,1 L0,1 L0,0z "/>
</clipPath></defs></g>

<g fill="none" stroke="#000000" stroke-opacity="1" stroke-width="1" stroke-linecap="square" stroke-linejoin="bevel" transform="matrix(1,0,0,1,0,0)"
font-family="Helvetica" font-size="16" font-weight="400" font-style="normal" 
>
</g>

<g fill="none" stroke="#000000" stroke-opacity="1" stroke-width="1" stroke-linecap="square" stroke-linejoin="bevel" transform="matrix(1,0,0,1,0,0)"
font-family="Helvetica" font-size="16" font-weight="400" font-style="normal" 
>
</g>
</g>
</svg>
