<?xml version="1.0" encoding="UTF-8" standalone="no"?>
<svg width="52.9167mm" height="32.0146mm"
 viewBox="0 0 200 121"
 xmlns="http://www.w3.org/2000/svg" xmlns:xlink="http://www.w3.org/1999/xlink"  version="1.2" baseProfile="tiny">
<defs>
</defs>
<g fill="none" stroke="black" stroke-width="1" fill-rule="evenodd" stroke-linecap="square" stroke-linejoin="bevel" >

<g fill="#ffffff" fill-opacity="0" stroke="none" transform="matrix(1,0,0,1,0,0)"
font-family="Helvetica" font-size="16" font-weight="400" font-style="normal" 
>
<path vector-effect="non-scaling-stroke" fill-rule="evenodd" d="M0,0 L200,0 L200,121 L0,121 L0,0z "/>
</g>

<g fill="none" stroke="#000000" stroke-opacity="1" stroke-width="1" stroke-linecap="square" stroke-linejoin="bevel" transform="matrix(1,0,0,1,0,0)"
font-family="Helvetica" font-size="16" font-weight="400" font-style="normal" 
>
</g>

<g fill="none" stroke="#000000" stroke-opacity="1" stroke-width="1" stroke-linecap="square" stroke-linejoin="bevel" transform="matrix(1,0,0,1,0,0)"
font-family="Helvetica" font-size="16" font-weight="400" font-style="normal" 
clip-path="url(#clip6071)" >
<defs><clipPath id="clip6071"><path vector-effect="non-scaling-stroke" fill-rule="evenodd" d="M0,0 L200,0 L200,121.348 L0,121.348 L0,0z "/>
</clipPath></defs></g>

<g fill="none" stroke="#000000" stroke-opacity="1" stroke-width="1" stroke-linecap="square" stroke-linejoin="bevel" transform="matrix(-2.24719,0,0,-2.24719,15.7303,60.6742)"
font-family="Helvetica" font-size="16" font-weight="400" font-style="normal" 
clip-path="url(#clip6072)" >
<defs><clipPath id="clip6072"><path vector-effect="non-scaling-stroke" fill-rule="evenodd" d="M7,27 L-82,27 L-82,-27 L7,-27 L7,27z "/>
</clipPath></defs></g>

<g fill="#000000" fill-opacity="0" stroke="#000000" stroke-opacity="1" stroke-width="2" stroke-linecap="round" stroke-linejoin="miter" stroke-miterlimit="2" transform="matrix(-2.24719,0,0,-2.24719,15.7303,60.6742)"
font-family="Helvetica" font-size="16" font-weight="400" font-style="normal" 
clip-path="url(#clip6072)" >
<path vector-effect="none" fill-rule="evenodd" d="M5,-5 L0,0 L5,5"/>
</g>

<g fill="none" stroke="#000000" stroke-opacity="1" stroke-width="1" stroke-linecap="square" stroke-linejoin="bevel" transform="matrix(-2.24719,0,0,-2.24719,15.7303,60.6742)"
font-family="Helvetica" font-size="16" font-weight="400" font-style="normal" 
clip-path="url(#clip6072)" >
</g>

<g fill="none" stroke="#000000" stroke-opacity="1" stroke-width="1" stroke-linecap="square" stroke-linejoin="bevel" transform="matrix(2.24719,0,0,2.24719,15.7303,4.49438)"
font-family="Helvetica" font-size="16" font-weight="400" font-style="normal" 
clip-path="url(#clip6073)" >
<defs><clipPath id="clip6073"><path vector-effect="non-scaling-stroke" fill-rule="evenodd" d="M-7,-2 L82,-2 L82,52 L-7,52 L-7,-2z "/>
</clipPath></defs></g>

<g fill="#ffffff" fill-opacity="1" stroke="none" transform="matrix(2.24719,0,0,2.24719,15.7303,4.49438)"
font-family="Helvetica" font-size="16" font-weight="400" font-style="normal" 
clip-path="url(#clip6073)" >
<path vector-effect="none" fill-rule="evenodd" d="M0,0 L80,0 L80,50 L0,50 L0,0z "/>
</g>

<g fill="none" stroke="#000000" stroke-opacity="1" stroke-width="1" stroke-linecap="square" stroke-linejoin="bevel" transform="matrix(2.24719,0,0,2.24719,15.7303,4.49438)"
font-family="Helvetica" font-size="16" font-weight="400" font-style="normal" 
clip-path="url(#clip6073)" >
</g>

<g fill="none" stroke="#000000" stroke-opacity="1" stroke-width="1" stroke-linecap="square" stroke-linejoin="bevel" transform="matrix(2.24719,0,0,2.24719,15.7303,4.49438)"
font-family="Helvetica" font-size="16" font-weight="400" font-style="normal" 
clip-path="url(#clip6073)" >
</g>

<g fill="none" stroke="#000000" stroke-opacity="1" stroke-width="1" stroke-linecap="square" stroke-linejoin="bevel" transform="matrix(2.24719,0,0,2.24719,15.7303,4.49438)"
font-family="Helvetica" font-size="16" font-weight="400" font-style="normal" 
clip-path="url(#clip6074)" >
<defs><clipPath id="clip6074"><path vector-effect="non-scaling-stroke" fill-rule="evenodd" d="M0,0 L80,0 L80,50 L0,50 L0,0z "/>
</clipPath></defs></g>

<g fill="none" stroke="#000000" stroke-opacity="1" stroke-width="1" stroke-linecap="square" stroke-linejoin="bevel" transform="matrix(2.24719,0,0,2.24719,105.618,33.7079)"
font-family="Helvetica" font-size="10" font-weight="400" font-style="normal" 
clip-path="url(#clip6075)" >
<defs><clipPath id="clip6075"><path vector-effect="none" fill-rule="evenodd" d="M-40,-13 L40,-13 L40,37 L-40,37 L-40,-13z "/>
</clipPath></defs></g>

<g fill="none" stroke="#000000" stroke-opacity="1" stroke-width="1" stroke-linecap="square" stroke-linejoin="bevel" transform="matrix(2.24719,0,0,2.24719,105.618,33.7079)"
font-family="Helvetica" font-size="10" font-weight="400" font-style="normal" 
clip-path="url(#clip6075)" >
<text textLength="21" fill="#000000" fill-opacity="1" stroke="none" xml:space="preserve" x="-10" y="3" font-family="Helvetica" font-size="10" font-weight="400" font-style="normal" 
 >UDP</text>
</g>

<g fill="none" stroke="#000000" stroke-opacity="1" stroke-width="1" stroke-linecap="square" stroke-linejoin="bevel" transform="matrix(2.24719,0,0,2.24719,105.618,33.7079)"
font-family="Helvetica" font-size="10" font-weight="400" font-style="normal" 
clip-path="url(#clip6075)" >
</g>

<g fill="none" stroke="#000000" stroke-opacity="1" stroke-width="1" stroke-linecap="square" stroke-linejoin="bevel" transform="matrix(2.24719,0,0,2.24719,105.618,60.6742)"
font-family="Helvetica" font-size="10" font-weight="400" font-style="normal" 
clip-path="url(#clip6076)" >
<defs><clipPath id="clip6076"><path vector-effect="none" fill-rule="evenodd" d="M-40,-25 L40,-25 L40,25 L-40,25 L-40,-25z "/>
</clipPath></defs></g>

<g fill="none" stroke="#000000" stroke-opacity="1" stroke-width="1" stroke-linecap="square" stroke-linejoin="bevel" transform="matrix(2.24719,0,0,2.24719,105.618,60.6742)"
font-family="Helvetica" font-size="10" font-weight="400" font-style="normal" 
clip-path="url(#clip6076)" >
<text textLength="25" fill="#000000" fill-opacity="1" stroke="none" xml:space="preserve" x="-12" y="3" font-family="Helvetica" font-size="10" font-weight="400" font-style="normal" 
 >Send</text>
</g>

<g fill="none" stroke="#000000" stroke-opacity="1" stroke-width="1" stroke-linecap="square" stroke-linejoin="bevel" transform="matrix(2.24719,0,0,2.24719,105.618,60.6742)"
font-family="Helvetica" font-size="10" font-weight="400" font-style="normal" 
clip-path="url(#clip6076)" >
</g>

<g fill="none" stroke="#000000" stroke-opacity="1" stroke-width="1" stroke-linecap="square" stroke-linejoin="bevel" transform="matrix(2.24719,0,0,2.24719,105.618,87.6404)"
font-family="Helvetica" font-size="10" font-weight="400" font-style="normal" 
clip-path="url(#clip6077)" >
<defs><clipPath id="clip6077"><path vector-effect="none" fill-rule="evenodd" d="M-40,-37 L40,-37 L40,13 L-40,13 L-40,-37z "/>
</clipPath></defs></g>

<g fill="none" stroke="#000000" stroke-opacity="1" stroke-width="1" stroke-linecap="square" stroke-linejoin="bevel" transform="matrix(2.24719,0,0,2.24719,105.618,87.6404)"
font-family="Helvetica" font-size="10" font-weight="400" font-style="normal" 
clip-path="url(#clip6077)" >
<text textLength="30" fill="#000000" fill-opacity="1" stroke="none" xml:space="preserve" x="-15" y="3" font-family="Helvetica" font-size="10" font-weight="400" font-style="normal" 
 >Binary</text>
</g>

<g fill="none" stroke="#000000" stroke-opacity="1" stroke-width="1" stroke-linecap="square" stroke-linejoin="bevel" transform="matrix(2.24719,0,0,2.24719,105.618,87.6404)"
font-family="Helvetica" font-size="10" font-weight="400" font-style="normal" 
clip-path="url(#clip6077)" >
</g>

<g fill="none" stroke="#000000" stroke-opacity="1" stroke-width="1" stroke-linecap="square" stroke-linejoin="bevel" transform="matrix(2.24719,0,0,2.24719,105.618,87.6404)"
font-family="Helvetica" font-size="10" font-weight="400" font-style="normal" 
clip-path="url(#clip6078)" >
<defs><clipPath id="clip6078"><path vector-effect="none" fill-rule="evenodd" d="M-7,-2 L82,-2 L82,52 L-7,52 L-7,-2z "/>
</clipPath></defs></g>

<g fill="none" stroke="#000000" stroke-opacity="1" stroke-width="1" stroke-linecap="square" stroke-linejoin="bevel" transform="matrix(1,0,0,1,0,0)"
font-family="Helvetica" font-size="10" font-weight="400" font-style="normal" 
clip-path="url(#clip6078)" >
</g>

<g fill="none" stroke="#000000" stroke-opacity="1" stroke-width="1" stroke-linecap="square" stroke-linejoin="bevel" transform="matrix(2.24719,0,0,2.24719,15.7303,4.49438)"
font-family="Helvetica" font-size="16" font-weight="400" font-style="normal" 
clip-path="url(#clip6078)" >
</g>

<g fill="none" stroke="#000000" stroke-opacity="1" stroke-width="1" stroke-linecap="square" stroke-linejoin="bevel" transform="matrix(2.24719,0,0,2.24719,15.7303,4.49438)"
font-family="Helvetica" font-size="16" font-weight="400" font-style="normal" 
clip-path="url(#clip6078)" >
</g>

<g fill="none" stroke="#000000" stroke-opacity="1" stroke-width="0.723343" stroke-linecap="butt" stroke-linejoin="miter" stroke-miterlimit="2" transform="matrix(2.24719,0,0,2.24719,15.7303,4.49438)"
font-family="Helvetica" font-size="16" font-weight="400" font-style="normal" 
clip-path="url(#clip6078)" >
<path vector-effect="none" fill-rule="evenodd" d="M0,0 L80,0 L80,50 L0,50 L0,0z "/>
</g>

<g fill="none" stroke="#000000" stroke-opacity="1" stroke-width="1" stroke-linecap="square" stroke-linejoin="bevel" transform="matrix(2.24719,0,0,2.24719,15.7303,4.49438)"
font-family="Helvetica" font-size="16" font-weight="400" font-style="normal" 
clip-path="url(#clip6078)" >
</g>

<g fill="none" stroke="#000000" stroke-opacity="1" stroke-width="1" stroke-linecap="square" stroke-linejoin="bevel" transform="matrix(1,0,0,1,0,0)"
font-family="Helvetica" font-size="16" font-weight="400" font-style="normal" 
>
</g>

<g fill="none" stroke="#000000" stroke-opacity="1" stroke-width="1" stroke-linecap="square" stroke-linejoin="bevel" transform="matrix(1,0,0,1,0,0)"
font-family="Helvetica" font-size="16" font-weight="400" font-style="normal" 
>
</g>

<g fill="none" stroke="#000000" stroke-opacity="1" stroke-width="1" stroke-linecap="square" stroke-linejoin="bevel" transform="matrix(1,0,0,1,0,0)"
font-family="Helvetica" font-size="16" font-weight="400" font-style="normal" 
clip-path="url(#clip6079)" >
<defs><clipPath id="clip6079"><path vector-effect="non-scaling-stroke" fill-rule="evenodd" d="M0,0 L200,0 L200,121 L0,121 L0,0z "/>
</clipPath></defs></g>

<g fill="none" stroke="#000000" stroke-opacity="1" stroke-width="1" stroke-linecap="square" stroke-linejoin="bevel" transform="matrix(1,0,0,1,0,0)"
font-family="Helvetica" font-size="16" font-weight="400" font-style="normal" 
>
</g>

<g fill="none" stroke="#000000" stroke-opacity="1" stroke-width="1" stroke-linecap="square" stroke-linejoin="bevel" transform="matrix(1,0,0,1,0,0)"
font-family="Helvetica" font-size="16" font-weight="400" font-style="normal" 
>
</g>

<g fill="none" stroke="#000000" stroke-opacity="1" stroke-width="1" stroke-linecap="square" stroke-linejoin="bevel" transform="matrix(1,0,0,1,0,0)"
font-family="Helvetica" font-size="16" font-weight="400" font-style="normal" 
clip-path="url(#clip6080)" >
<defs><clipPath id="clip6080"><path vector-effect="non-scaling-stroke" fill-rule="evenodd" d="M0,0 L1,0 L1,1 L0,1 L0,0z "/>
</clipPath></defs></g>

<g fill="none" stroke="#000000" stroke-opacity="1" stroke-width="1" stroke-linecap="square" stroke-linejoin="bevel" transform="matrix(1,0,0,1,0,0)"
font-family="Helvetica" font-size="16" font-weight="400" font-style="normal" 
>
</g>

<g fill="none" stroke="#000000" stroke-opacity="1" stroke-width="1" stroke-linecap="square" stroke-linejoin="bevel" transform="matrix(1,0,0,1,0,0)"
font-family="Helvetica" font-size="16" font-weight="400" font-style="normal" 
>
</g>
</g>
</svg>
